<svg width="150" height="150" viewBox="0 0 150 150" fill="none" xmlns="http://www.w3.org/2000/svg">
<path d="M147.581 75C147.581 115.085 115.085 147.581 75 147.581C34.9153 147.581 2.41937 115.085 2.41937 75C2.41937 34.9153 34.9153 2.41937 75 2.41937C115.085 2.41937 147.581 34.9153 147.581 75Z" fill="#85D3C1"/>
<path d="M108.871 31.4516V41.129H41.129V31.4516H108.871Z" fill="#FF958A"/>
<path d="M51.5802 10.5729L52.0161 9.67744C53.1289 7.45182 54.8229 5.6373 56.8548 4.37919C58.8867 3.12108 61.2824 2.41937 63.7738 2.41937C66.3633 2.41937 68.9032 3.19314 71.0567 4.62136L75 7.25808L78.9432 4.62136C81.0968 3.19314 83.6367 2.41937 86.2261 2.41937C91.2101 2.41937 95.7582 5.2262 97.9838 9.67744L98.4198 10.5729C98.6371 10.2586 98.8793 9.99167 99.1451 9.72587L99.242 9.629C100.766 8.10509 102.823 7.25808 104.976 7.25808C107.444 7.25808 109.766 8.37089 111.314 10.3059L114.169 13.9113L117.29 17.8061C118.112 18.7984 118.548 20.0566 118.548 21.3383C118.548 23.1292 117.701 24.822 116.274 25.9112L108.871 31.4516H41.129L33.7257 25.9112C32.2986 24.822 31.4516 23.1292 31.4516 21.3383C31.4516 20.0566 31.8875 18.7984 32.7097 17.8061L35.7339 14.0082L38.686 10.3059C40.2336 8.37089 42.5561 7.25808 45.0238 7.25808C47.1774 7.25808 49.2341 8.10509 50.758 9.629L50.8549 9.72587C51.1207 9.99167 51.3628 10.2586 51.5802 10.5729Z" fill="#F9D48A"/>
<path d="M91.9355 113.71L75 110.879V104.032L77.6852 100.016C79.0401 97.9838 81.2906 96.7742 83.7335 96.7742H89.5161L113.202 99.9437C120.411 100.888 125.806 107.056 125.806 114.314V125.806L126.314 126.314C117.048 135.604 105.266 142.379 92.0808 145.524L91.9355 144.919V113.71Z" fill="#F9D48A"/>
<path d="M75 110.879L91.9355 113.71V144.919L92.0808 145.524C86.6125 146.879 80.8795 147.581 75 147.581C54.9683 147.581 36.8231 139.452 23.6856 126.314L24.1936 125.806V114.314C24.1936 107.056 29.5887 100.888 36.7983 99.9437L60.4839 96.7742H66.2665C68.7095 96.7742 70.9599 97.9838 72.3149 100.016L75 104.032V110.879Z" fill="#F9D48A"/>
<path d="M75 104.032L72.3149 100.016C70.9599 97.9839 68.7095 96.7742 66.2665 96.7742H60.4839V84.6774C64.524 87.7016 69.5565 89.5161 75 89.5161C80.4436 89.5161 85.476 87.7016 89.5161 84.6774V96.7742H83.7336C81.2906 96.7742 79.0401 97.9839 77.6852 100.016L75 104.032Z" fill="#F5F7FA"/>
<path d="M87.0967 77.4193C90.2414 77.4193 93.3389 76.4755 95.952 74.7342L97.7665 73.5245C96.1457 78.0005 93.2656 81.8706 89.5161 84.6774C85.476 87.7016 80.4435 89.5161 75 89.5161C69.5564 89.5161 64.524 87.7016 60.4838 84.6774C59.5648 83.9757 58.6929 83.2256 57.8956 82.427C55.403 79.9356 53.4431 76.9114 52.2335 73.5245L54.048 74.7342C56.6611 76.4755 59.7585 77.4193 62.9032 77.4193C66.0479 77.4193 69.1453 76.4755 71.7584 74.7342L75 72.5806L78.2415 74.7342C80.8546 76.4755 83.9521 77.4193 87.0967 77.4193Z" fill="#F5F7FA"/>
<path d="M108.871 58.0645C108.871 63.4112 104.54 67.7419 99.1936 67.7419H99.0731C99.1451 66.9434 99.1936 66.1448 99.1936 65.3226V48.3871C104.54 48.3871 108.871 52.7178 108.871 58.0645Z" fill="#F5F7FA"/>
<path d="M99.1936 48.3871V65.3226C99.1936 66.1448 99.1451 66.9434 99.0731 67.7419C98.9278 69.2906 98.6123 70.7897 98.1776 72.2416L94.9833 71.1772C92.9762 70.5003 91.1617 69.3875 89.6614 67.8872C88.0159 66.2416 85.7902 65.3226 83.4678 65.3226C81.1453 65.3226 78.9196 66.2416 77.2741 67.8872L75 70.1613L72.726 67.8872C71.0804 66.2416 68.8548 65.3226 66.5323 65.3226C64.2098 65.3226 61.9842 66.2416 60.3386 67.8872C58.8383 69.3875 57.0238 70.5003 55.0167 71.1772L51.8224 72.2416C51.3877 70.7897 51.0723 69.2906 50.927 67.7419C50.8549 66.9434 50.8065 66.1448 50.8065 65.3226V41.129H99.1936V48.3871Z" fill="#F5F7FA"/>
<path d="M50.8064 48.3871V65.3226C50.8064 66.1448 50.8549 66.9434 50.9269 67.7419H50.8064C45.4598 67.7419 41.129 63.4112 41.129 58.0645C41.129 52.7178 45.4598 48.3871 50.8064 48.3871Z" fill="#F5F7FA"/>
<path d="M108.871 41.129V58.0645C108.871 52.7178 104.54 48.3871 99.1935 48.3871V41.129H108.871Z" fill="#F9D48A"/>
<path d="M50.8064 41.129V48.3871C45.4598 48.3871 41.129 52.7178 41.129 58.0645V41.129H50.8064Z" fill="#F9D48A"/>
<path d="M98.1776 72.2416L94.9833 71.1772C92.9762 70.5003 91.1617 69.3875 89.6614 67.8872C88.0159 66.2416 85.7902 65.3226 83.4677 65.3226C81.1453 65.3226 78.9196 66.2416 77.2741 67.8872L75 70.1613L72.726 67.8872C71.0804 66.2416 68.8547 65.3226 66.5323 65.3226C64.2098 65.3226 61.9842 66.2416 60.3386 67.8872C58.8383 69.3875 57.0238 70.5003 55.0167 71.1772L51.8224 72.2416L50.8065 72.5806L52.2335 73.5245L54.048 74.7342C56.6611 76.4755 59.7585 77.4193 62.9032 77.4193C66.0479 77.4193 69.1454 76.4755 71.7584 74.7342L75 72.5806L78.2416 74.7342C80.8547 76.4755 83.9521 77.4193 87.0968 77.4193C90.2415 77.4193 93.3389 76.4755 95.952 74.7342L97.7665 73.5245L99.1936 72.5806L98.1776 72.2416Z" fill="#F9D48A"/>
<path d="M65.3226 53.2258C65.3226 54.5619 64.2393 55.6452 62.9032 55.6452C61.5672 55.6452 60.4839 54.5619 60.4839 53.2258C60.4839 51.8897 61.5672 50.8065 62.9032 50.8065C64.2393 50.8065 65.3226 51.8897 65.3226 53.2258Z" fill="black"/>
<path d="M89.5161 53.2258C89.5161 54.5619 88.4329 55.6452 87.0968 55.6452C85.7607 55.6452 84.6774 54.5619 84.6774 53.2258C84.6774 51.8897 85.7607 50.8065 87.0968 50.8065C88.4329 50.8065 89.5161 51.8897 89.5161 53.2258Z" fill="black"/>
<path d="M79.8387 118.548H84.6774V123.387H79.8387V118.548Z" fill="black"/>
<path d="M65.3226 118.548H70.1613V123.387H65.3226V118.548Z" fill="black"/>
<path d="M79.8387 133.065H84.6774V137.903H79.8387V133.065Z" fill="black"/>
<path d="M65.3226 133.065H70.1613V137.903H65.3226V133.065Z" fill="black"/>
<path d="M115.856 12.1157L113.195 8.79143C111.186 6.27875 108.188 4.83871 104.974 4.83871C102.869 4.83871 100.8 5.49435 99.0317 6.70166C96.1505 2.52095 91.4228 0 86.238 0C83.1582 0 80.173 0.904896 77.6084 2.61309L75 4.34964L72.394 2.61309C69.827 0.904896 66.8441 0 63.7621 0C58.5772 0 53.8519 2.51859 50.973 6.69694C49.2317 5.50852 47.1502 4.83871 45.0262 4.83871C41.8118 4.83871 38.8136 6.27875 36.803 8.79143L34.1616 12.092C12.7689 26.0057 0 49.4999 0 75C0 116.357 33.643 150 75 150C116.357 150 150 116.357 150 75C150 49.4857 137.241 26.0317 115.856 12.1157ZM145.161 75C145.161 92.4151 138.769 108.356 128.226 120.633V114.322C128.226 105.868 121.909 98.6513 113.528 97.5361L91.9355 94.6549V85.8363C95.3566 83.0058 98.0418 79.3307 99.711 75.1429L104.649 71.8506L101.073 70.6574C101.119 70.4295 101.139 70.1908 101.179 69.9605C106.904 69.0048 111.29 64.0527 111.29 58.0645V32.6613L117.724 27.8344C119.591 26.4333 120.718 24.2656 120.896 21.9538C136.232 35.1917 145.161 54.3705 145.161 75ZM106.452 113.71V137.688C102.608 139.626 98.5615 141.216 94.3548 142.425V111.66L89.7122 110.886L102.01 108.837L101.216 104.064L77.4194 108.031V104.766L79.6958 101.349C80.5959 99.9992 82.1033 99.1936 83.7217 99.1936H89.3472L112.89 102.331C118.874 103.13 123.387 108.285 123.387 114.322V125.734C119.707 129.244 115.662 132.375 111.29 135.027V113.71H106.452ZM43.5484 58.0645C43.5484 54.9151 45.5779 52.2536 48.3871 51.2518V64.8749C45.5779 63.8755 43.5484 61.2139 43.5484 58.0645ZM43.5484 33.871H106.452V38.7097H43.5484V33.871ZM95.7488 68.8819C94.1103 68.335 92.5958 67.4005 91.372 66.1767C89.294 64.0964 86.4116 62.9032 83.4677 62.9032C80.5239 62.9032 77.6414 64.0964 75.5611 66.179L75 66.7402L74.4389 66.179C72.3586 64.0964 69.4761 62.9032 66.5323 62.9032C63.5884 62.9032 60.706 64.0964 58.6256 66.1767C57.4018 67.4005 55.8873 68.3373 54.2488 68.8819L53.5743 69.1064C53.3617 67.8754 53.2258 66.615 53.2258 65.3226V43.5484H96.7742V65.3226C96.7742 66.615 96.6383 67.8754 96.4233 69.1064L95.7488 68.8819ZM93.6945 73.2871C89.3519 75.7088 83.743 75.5009 79.5753 72.7236L77.3473 71.2375L78.9846 69.6002C81.3437 67.2387 85.5941 67.2387 87.9532 69.6002C89.574 71.2209 91.5504 72.4885 93.6945 73.2871ZM72.6527 71.2351L70.4247 72.7212C66.257 75.4985 60.6481 75.7088 56.3055 73.2847C58.4496 72.4861 60.4236 71.2186 62.0468 69.5978C64.4059 67.2363 68.6563 67.2363 71.0154 69.5978L72.6527 71.2351ZM48.3871 46.2123C46.5891 46.5797 44.9613 47.3782 43.5484 48.4473V43.5484H48.3871V46.2123ZM101.613 43.5484H106.452V48.4497C105.039 47.3806 103.411 46.5797 101.613 46.2146V43.5484ZM101.613 51.2518C104.422 52.2536 106.452 54.9151 106.452 58.0645C106.452 61.2139 104.422 63.8755 101.613 64.8772V51.2518ZM73.1111 76.7495L75 75.4891L76.8889 76.7495C79.9238 78.772 83.4536 79.8387 87.0968 79.8387C88.6892 79.8387 90.2462 79.5989 91.7642 79.1996C87.7666 84.0194 81.7359 87.0968 75 87.0968C68.2405 87.0968 62.1921 84.0029 58.1956 79.1535C63.2127 80.4459 68.7343 79.6674 73.1111 76.7495ZM62.9032 88.9987C66.537 90.8617 70.6433 91.9355 75 91.9355C79.3567 91.9355 83.463 90.8617 87.0968 88.9987V94.3548H83.7217C80.4778 94.3548 77.4678 95.9662 75.6698 98.6631L75 99.6696L74.3302 98.6631C72.5299 95.9662 69.5198 94.3548 66.2783 94.3548H62.9032V88.9987ZM49.1396 11.4317C50.2134 12.5079 50.8065 13.9385 50.8065 15.4576V16.9355H55.6452V15.4576C55.6452 13.6987 55.1691 12.0247 54.3386 10.4925C56.2087 7.00408 59.7845 4.83871 63.7621 4.83871C65.8837 4.83871 67.9428 5.46009 69.7088 6.63905L75 10.1665L80.2912 6.63905C82.0572 5.46009 84.1163 4.83871 86.238 4.83871C90.2131 4.83871 93.7843 6.99935 95.6567 10.4831C94.8368 11.9999 94.3548 13.6833 94.3548 15.4576V16.9355H99.1936V15.4576C99.1936 13.9385 99.7866 12.5079 100.948 11.3443C103.234 9.05604 107.395 9.28522 109.418 11.8133L115.416 19.3064C115.875 19.8853 116.129 20.6106 116.129 21.3513C116.129 22.3743 115.64 23.3513 114.822 23.9656L108.065 29.0323H41.9347L35.1775 23.9632C34.36 23.3489 33.871 22.3743 33.871 21.3513C33.871 20.6106 34.125 19.8876 34.5869 19.3088L40.5821 11.8156C42.6069 9.28522 46.6695 8.95445 49.1396 11.4317ZM29.102 21.9514C29.2792 24.2632 30.4061 26.4333 32.2738 27.8344L38.7097 32.6613V58.0645C38.7097 64.0527 43.0959 69.0048 48.8183 69.9605C48.8584 70.1908 48.8785 70.4295 48.9246 70.6574L45.3487 71.8506L50.2867 75.1429C51.9559 79.3307 54.641 83.0058 58.0622 85.8363V94.6549L36.4699 97.5338C28.0907 98.6513 21.7742 105.868 21.7742 114.322V120.633C11.2309 108.356 4.83871 92.4151 4.83871 75C4.83871 54.3894 13.7707 35.1893 29.102 21.9514ZM43.5484 137.688V113.71H38.7097V135.024C34.3376 132.372 30.2927 129.242 26.6129 125.732V114.319C26.6129 108.283 31.1256 103.127 37.1102 102.329L60.6504 99.1936H66.2759C67.8967 99.1936 69.4017 99.9992 70.3019 101.349L72.5807 104.766V108.031L48.784 104.067L47.9902 108.839L89.5161 115.759V143.642C84.8298 144.631 79.9769 145.161 75 145.161C63.6947 145.161 53.0155 142.456 43.5484 137.688Z" fill="black"/>
</svg>
