<svg width="300" height="300" viewBox="0 0 300 300" fill="none" xmlns="http://www.w3.org/2000/svg">
<path d="M89.0625 285.938H14.0625V276.562C14.0625 265.284 21.6234 256.406 32.8125 257.812L89.0625 267.187V285.938Z" fill="#7D8D9C"/>
<path d="M154.688 285.938H229.688V276.562C229.688 265.284 222.127 256.406 210.938 257.812L154.688 267.187V285.938Z" fill="#7D8D9C"/>
<path d="M178.125 229.688C178.125 229.688 206.25 220.312 215.625 196.875C224.503 174.684 245.156 133.659 276.562 154.688C309.375 176.663 248.437 248.438 178.125 248.438V229.688Z" fill="#5A6470"/>
<path d="M93.75 65.625L56.25 14.0625C56.25 14.0625 32.8125 42.1875 32.8125 65.625C32.8125 89.0625 56.25 103.125 56.25 103.125L93.75 65.625Z" fill="#F98C96"/>
<path d="M150 65.625L187.5 14.0625C187.5 14.0625 210.938 42.1875 210.938 65.625C210.938 89.0625 187.5 103.125 187.5 103.125L150 65.625Z" fill="#F98C96"/>
<path d="M192.188 121.875L187.5 112.5V103.125L150 65.625H93.75L56.25 103.125V112.5L51.5625 121.875C49.9403 124.733 49.0876 127.964 49.0876 131.25C49.0876 134.536 49.9403 137.767 51.5625 140.625L60.9375 154.688L79.6875 168.75C68.7 183.164 51.5625 203.044 51.5625 225C51.6668 247.494 60.0042 269.171 75 285.938H168.75C183.746 269.171 192.083 247.494 192.188 225C192.188 203.044 175.05 183.164 164.063 168.75L182.813 154.688L192.188 140.625C193.81 137.767 194.662 134.536 194.662 131.25C194.662 127.964 193.81 124.733 192.188 121.875Z" fill="#AABECE"/>
<path d="M121.875 131.25C112.5 131.25 107.812 112.5 107.812 112.5H135.938C135.938 112.5 131.25 131.25 121.875 131.25Z" fill="#9C2D20"/>
<path d="M44.9109 30.4312C50.1047 35.1562 60.9375 46.6734 60.9375 60.9375C60.9375 79.6875 75 84.375 75 84.375L93.75 65.625L56.25 14.0625C52.0912 19.2462 48.3022 24.7159 44.9109 30.4312Z" fill="#5A6470"/>
<path d="M198.839 30.4312C193.645 35.1562 182.812 46.6734 182.812 60.9375C182.812 79.6875 168.75 84.375 168.75 84.375L150 65.625L187.5 14.0625C191.659 19.2462 195.448 24.7159 198.839 30.4312Z" fill="#5A6470"/>
<path d="M145.313 285.938H98.4375L103.125 262.5C104.361 258.474 106.842 254.944 110.211 252.417C113.58 249.89 117.664 248.497 121.875 248.438C126.086 248.497 130.17 249.89 133.539 252.417C136.908 254.944 139.389 258.474 140.625 262.5L145.313 285.938Z" fill="#F4F4E6"/>
<path d="M107.813 154.687C110.484 154.679 113.122 154.096 115.549 152.979C117.975 151.861 120.133 150.234 121.875 148.209C124.367 151.101 127.686 153.159 131.384 154.107C135.082 155.054 138.982 154.845 142.558 153.508C146.133 152.17 149.213 149.769 151.382 146.627C153.551 143.486 154.704 139.755 154.688 135.937H145.313C145.313 138.424 144.325 140.808 142.567 142.567C140.808 144.325 138.424 145.312 135.938 145.312C133.451 145.312 131.067 144.325 129.308 142.567C127.55 140.808 126.563 138.424 126.563 135.937V134.953C135.628 131.105 139.688 116.85 140.484 113.639C140.658 112.948 140.671 112.226 140.523 111.529C140.376 110.832 140.071 110.178 139.633 109.616C139.194 109.054 138.634 108.6 137.993 108.288C137.353 107.975 136.65 107.813 135.938 107.812H107.813C107.1 107.813 106.397 107.975 105.757 108.288C105.116 108.6 104.556 109.054 104.117 109.616C103.679 110.178 103.374 110.832 103.227 111.529C103.079 112.226 103.092 112.948 103.266 113.639C104.067 116.85 108.122 131.105 117.188 134.953V135.937C117.188 138.424 116.2 140.808 114.442 142.567C112.683 144.325 110.299 145.312 107.813 145.312C105.326 145.312 102.942 144.325 101.183 142.567C99.4252 140.808 98.4375 138.424 98.4375 135.937H89.0625C89.0625 140.91 91.0379 145.679 94.5543 149.196C98.0706 152.712 102.84 154.687 107.813 154.687ZM114.333 117.187H129.417C127.383 122.039 124.472 126.562 121.875 126.562C119.278 126.562 116.367 122.039 114.333 117.187Z" fill="black"/>
<path d="M159.375 117.187C164.553 117.187 168.75 112.99 168.75 107.812C168.75 102.635 164.553 98.4375 159.375 98.4375C154.197 98.4375 150 102.635 150 107.812C150 112.99 154.197 117.187 159.375 117.187Z" fill="black"/>
<path d="M84.375 117.187C89.5527 117.187 93.75 112.99 93.75 107.812C93.75 102.635 89.5527 98.4375 84.375 98.4375C79.1973 98.4375 75 102.635 75 107.812C75 112.99 79.1973 117.187 84.375 117.187Z" fill="black"/>
<path d="M162.958 126.61L181.705 121.913L183.983 131.007L165.236 135.703L162.958 126.61Z" fill="black"/>
<path d="M59.8118 131.172L62.09 122.079L80.8367 126.775L78.5586 135.869L59.8118 131.172Z" fill="black"/>
<path d="M103.125 242.939C106.674 242.941 110.144 241.89 113.096 239.918C116.047 237.947 118.348 235.145 119.707 231.866C121.065 228.587 121.42 224.979 120.727 221.498C120.034 218.017 118.325 214.82 115.814 212.311L97.0641 193.561L90.4359 200.189L109.186 218.939C110.737 220.558 111.592 222.72 111.568 224.962C111.544 227.204 110.642 229.347 109.057 230.932C107.472 232.517 105.329 233.419 103.087 233.443C100.845 233.467 98.683 232.612 97.0641 231.061L78.3141 212.311L71.6859 218.939L90.4359 237.689C92.1006 239.357 94.0786 240.68 96.2563 241.581C98.434 242.482 100.768 242.944 103.125 242.939Z" fill="black"/>
<path d="M134.564 231.061C132.959 229.452 132.058 227.272 132.058 225C132.058 222.728 132.959 220.548 134.564 218.939L153.314 200.189L146.686 193.561L127.936 212.311C124.571 215.676 122.68 220.241 122.68 225C122.68 229.759 124.571 234.324 127.936 237.689C131.301 241.054 135.866 242.945 140.625 242.945C145.384 242.945 149.949 241.054 153.314 237.689L172.064 218.939L165.436 212.311L146.686 231.061C145.077 232.666 142.897 233.567 140.625 233.567C138.353 233.567 136.173 232.666 134.564 231.061Z" fill="black"/>
<path d="M65.625 234.375H75V243.75H65.625V234.375Z" fill="black"/>
<path d="M75 253.125H84.375V262.5H75V253.125Z" fill="black"/>
<path d="M14.0625 290.625H229.688C230.931 290.625 232.123 290.131 233.002 289.252C233.881 288.373 234.375 287.181 234.375 285.938V276.563C234.47 273.089 233.829 269.636 232.493 266.428C231.158 263.221 229.158 260.332 226.627 257.953C224.389 256.019 221.76 254.592 218.919 253.77C216.078 252.948 213.093 252.75 210.169 253.191L191.447 256.298C191.916 254.892 192.436 253.486 192.853 252.08C240.97 245.658 282.037 209.775 289.266 180.553C292.416 167.836 288.825 157.266 279.169 150.797C275.197 147.782 270.579 145.733 265.679 144.812C260.779 143.89 255.731 144.121 250.936 145.486C235.936 150.131 222.572 166.838 211.266 195.141C207.91 202.917 202.549 209.663 195.731 214.688C192.066 197.344 180.117 181.875 170.972 170.053L170.672 169.673L185.625 158.437C186.05 158.119 186.418 157.731 186.713 157.289L196.088 143.227C196.195 143.063 196.293 142.894 196.383 142.72C198.333 139.212 199.357 135.264 199.357 131.25C199.357 127.236 198.333 123.288 196.383 119.78L192.188 111.394V105.628C198.473 101.203 215.625 87.1875 215.625 65.625C215.625 40.7812 192.098 12.2625 191.105 11.0625C190.656 10.5067 190.083 10.0643 189.431 9.77111C188.78 9.47795 188.068 9.34225 187.355 9.375C186.642 9.4008 185.944 9.58802 185.314 9.92254C184.684 10.2571 184.138 10.7302 183.717 11.3062L147.614 60.9375H96.1359L60.0422 11.3062C59.6214 10.7302 59.0755 10.2571 58.4454 9.92254C57.8153 9.58802 57.1176 9.4008 56.4047 9.375C55.6925 9.35275 54.9846 9.49317 54.3348 9.78558C53.685 10.078 53.1104 10.5147 52.6547 11.0625C51.6516 12.2625 28.125 40.7812 28.125 65.625C28.125 87.1641 45.2766 101.203 51.5625 105.628V111.394L47.3672 119.78C45.4167 123.288 44.3931 127.236 44.3931 131.25C44.3931 135.264 45.4167 139.212 47.3672 142.72C47.4565 142.894 47.5551 143.063 47.6625 143.227L57.0375 157.289C57.3323 157.731 57.7001 158.119 58.125 158.437L73.0781 169.65L72.7781 170.03C61.8469 184.148 46.875 203.475 46.875 225C46.928 235.662 48.7626 246.241 52.3031 256.298L33.3937 253.162C30.4968 252.748 27.5447 252.962 24.7375 253.788C21.9303 254.615 19.3336 256.035 17.1234 257.953C14.5917 260.332 12.5923 263.221 11.2568 266.428C9.92133 269.636 9.28 273.089 9.37499 276.563V285.938C9.37499 287.181 9.86885 288.373 10.7479 289.252C11.627 290.131 12.8193 290.625 14.0625 290.625ZM196.875 225.366C207.1 218.979 215.159 209.656 219.998 198.614C230.058 173.428 241.72 158.152 253.748 154.434C257.211 153.495 260.845 153.38 264.36 154.101C267.875 154.821 271.171 156.357 273.984 158.583C280.303 162.802 282.394 169.444 280.205 178.298C274.608 200.902 240.089 234.778 195.291 242.25C196.326 236.681 196.857 231.03 196.875 225.366ZM104.156 281.25L107.672 263.639C108.597 260.614 110.463 257.963 112.999 256.071C115.534 254.18 118.607 253.147 121.771 253.122C124.934 253.098 128.023 254.083 130.587 255.935C133.152 257.787 135.059 260.408 136.031 263.419L139.594 281.231L104.156 281.25ZM211.5 262.463C213.079 262.205 214.694 262.298 216.233 262.734C217.772 263.17 219.197 263.938 220.406 264.984C221.942 266.483 223.145 268.289 223.937 270.284C224.728 272.279 225.091 274.418 225 276.563V281.25H178.514C181.885 276.605 184.828 271.665 187.308 266.489L211.5 262.463ZM206.25 65.625C206.25 81.3375 193.856 92.6063 188.039 97.0312L176.377 85.3687C178.473 83.7725 180.324 81.8773 181.87 79.7437L190.092 83.8547L194.283 75.4641L186.028 71.3391C186.23 70.6875 186.389 69.9891 186.553 69.2906L198.356 65.3578L195.394 56.4516L187.683 59.025C188.765 51.1608 192.311 43.8418 197.813 38.1187C202.731 46.5042 205.621 55.9238 206.25 65.625ZM187.598 21.8953C189.103 23.9672 190.945 26.625 192.877 29.6719C184.116 37.8049 178.832 49.0047 178.125 60.9375C178.382 64.3718 177.735 67.8135 176.248 70.9198C174.761 74.0261 172.486 76.6887 169.65 78.6422L156.15 65.1422L187.598 21.8953ZM56.1516 21.8953L87.6 65.1562L74.0625 78.6656C71.2364 76.699 68.9719 74.0296 67.4923 70.9207C66.0126 67.8119 65.3691 64.371 65.625 60.9375C64.9216 49.0061 59.6386 37.8071 50.8781 29.6766C52.8094 26.6344 54.6516 23.9719 56.1516 21.9V21.8953ZM37.5 65.625C38.1333 55.9275 41.0225 46.5118 45.9375 38.1281C51.4455 43.8571 54.991 51.1878 56.0625 59.0625L48.3516 56.4891L45.3891 65.3953L57.1922 69.3281C57.3562 70.0266 57.5156 70.7344 57.7172 71.3766L49.4625 75.5016L53.6531 83.8922L61.875 79.7812C63.4213 81.9148 65.2723 83.81 67.3687 85.4062L55.6969 97.0781C49.8797 92.6391 37.5 81.4219 37.5 65.625ZM80.1937 175.781L83.4141 171.6C83.7878 171.107 84.0601 170.544 84.2153 169.945C84.3705 169.346 84.4056 168.722 84.3184 168.109C84.2312 167.497 84.0236 166.907 83.7075 166.375C83.3914 165.843 82.973 165.379 82.4766 165.009L64.3687 151.416L55.6078 138.291C54.363 136.107 53.7189 133.633 53.7412 131.12C53.7634 128.607 54.4511 126.145 55.7344 123.984L60.4219 114.609C60.7565 113.956 60.9331 113.234 60.9375 112.5V105.066L95.6906 70.3125H148.059L182.813 105.066V112.5C182.805 113.225 182.965 113.943 183.281 114.595L187.969 123.97C189.252 126.131 189.94 128.593 189.962 131.106C189.984 133.619 189.34 136.093 188.095 138.277L179.334 151.402L161.25 165C160.754 165.37 160.335 165.834 160.019 166.366C159.703 166.898 159.495 167.487 159.408 168.1C159.321 168.713 159.356 169.337 159.511 169.936C159.666 170.535 159.939 171.097 160.313 171.591L163.533 175.772C174.225 189.544 187.5 206.681 187.5 225C187.432 245.629 180.039 265.564 166.641 281.25H149.156L145.172 261.361C143.73 256.272 140.661 251.796 136.435 248.616C132.209 245.436 127.057 243.728 121.768 243.753C116.479 243.778 111.344 245.535 107.147 248.754C102.951 251.974 99.9248 256.479 98.5312 261.581L94.5937 281.25H77.1094C63.7105 265.564 56.318 245.629 56.25 225C56.25 206.681 69.525 189.544 80.1937 175.781ZM18.75 276.563C18.6576 274.419 19.0177 272.281 19.8067 270.286C20.5958 268.291 21.7962 266.485 23.3297 264.984C24.5128 263.957 25.904 263.197 27.408 262.757C28.912 262.317 30.4933 262.207 32.0437 262.434L56.4422 266.489C58.922 271.665 61.8652 276.605 65.2359 281.25H18.75V276.563Z" fill="black"/>
<path d="M268.228 176.381L275.536 170.508C275.189 170.077 266.939 159.975 255.956 161.719C247.327 163.092 240.159 171.216 234.67 185.855L243.455 189.136C247.542 178.228 252.497 171.792 257.4 170.977C262.852 170.072 268.177 176.32 268.228 176.381Z" fill="black"/>
<path d="M135.938 164.063H126.563C126.563 165.306 126.069 166.498 125.19 167.377C124.31 168.256 123.118 168.75 121.875 168.75C120.632 168.75 119.44 168.256 118.56 167.377C117.681 166.498 117.188 165.306 117.188 164.063H107.812C107.813 167.792 109.294 171.369 111.931 174.006C114.569 176.643 118.145 178.125 121.875 178.125C125.605 178.125 129.181 176.643 131.819 174.006C134.456 171.369 135.938 167.792 135.938 164.063Z" fill="black"/>
</svg>
