<svg id="Capa_1" enable-background="new 0 0 512 512" height="512" viewBox="0 0 512 512" width="512" xmlns="http://www.w3.org/2000/svg"><g><path d="m425.626 199.805c0-20.615-12.495-38.301-30.32-45.93-.789-.337-1.205-1.184-.998-2.017.74-2.975 1.139-6.085 1.139-9.289 0-21.265-17.239-38.504-38.504-38.504-.004 0-.009 0-.013 0-.761.001-1.423-.484-1.657-1.208-4.46-13.79-17.396-23.767-32.672-23.767-15.222 0-28.126 9.907-32.628 23.623-.306.932-1.342 1.421-2.248 1.043-5.922-2.476-12.418-3.853-19.238-3.853-10.376 0-20.005 3.174-27.991 8.59-.629.427-1.45.394-2.04-.085-10.555-8.566-24-13.708-38.652-13.708-31.286 0-57.104 23.4-60.912 53.653-.109.869-.839 1.527-1.715 1.51-.284-.005-.568-.008-.853-.008-27.587 0-49.951 22.364-49.951 49.951h339.253z" fill="#b36d3c"/><path d="m290.942 199.805h134.684c0-20.615-12.495-38.301-30.32-45.93-.789-.337-1.205-1.184-.998-2.017.74-2.975 1.139-6.085 1.139-9.289 0-21.265-17.239-38.504-38.504-38.504-.004 0-.009 0-.013 0-.761.001-1.423-.484-1.657-1.208-4.46-13.79-17.396-23.767-32.672-23.767-2.998 0-5.906.385-8.679 1.108 10.538 37.551 2.49 81.798-22.98 119.607z" fill="#995e34"/><path d="m501.593 432.911h-491.186c-5.748 0-10.407-4.66-10.407-10.407v-45.789c0-5.747 4.659-10.406 10.407-10.406h491.187c5.747 0 10.406 4.659 10.406 10.406v45.789c0 5.747-4.659 10.407-10.407 10.407z" fill="#e175a5"/><path d="m501.593 366.309h-33.301c5.747 0 10.406 4.659 10.406 10.406v45.789c0 5.747-4.659 10.407-10.406 10.407h33.301c5.747 0 10.406-4.659 10.406-10.407v-45.789c.001-5.747-4.658-10.406-10.406-10.406z" fill="#de5791"/><path d="m484.943 366.309h-457.886l24.217-149.029c1.637-10.074 10.337-17.475 20.544-17.475h368.365c10.206 0 18.906 7.401 20.544 17.475z" fill="#e175a5"/><path d="m460.726 217.28c-1.637-10.074-10.337-17.475-20.544-17.475h-30.166c10.206 0 18.906 7.401 20.544 17.475l14.881 91.577c2.057 12.661-7.717 24.151-20.544 24.151h-392.429l-5.411 33.301h457.886z" fill="#de5791"/><g><path d="m235.059 299.707h41.883c1.069 0 1.94.821 2.047 1.884 1.014 10.15 10.13 17.913 20.786 16.728 8.541-.95 15.456-7.826 16.452-16.363.824-7.069-2.297-13.457-7.442-17.278-1.074-.798-1.074-2.446 0-3.243 5.145-3.821 8.266-10.209 7.442-17.278-.996-8.536-7.911-15.412-16.452-16.363-10.656-1.186-19.773 6.578-20.786 16.728-.106 1.064-.978 1.884-2.047 1.884h-41.883c-1.069 0-1.94-.821-2.047-1.884-1.014-10.15-10.13-17.913-20.786-16.728-8.541.95-15.456 7.826-16.452 16.363-.824 7.069 2.297 13.457 7.442 17.278 1.074.798 1.074 2.446 0 3.243-5.145 3.821-8.266 10.209-7.442 17.278.996 8.536 7.911 15.412 16.452 16.363 10.656 1.186 19.773-6.578 20.786-16.728.106-1.063.978-1.884 2.047-1.884z" fill="#fcf3e3"/></g><g fill="#995e34"><circle cx="201.836" cy="139.447" r="6.244"/><circle cx="243.462" cy="145.171" r="6.244"/><circle cx="213.283" cy="168.065" r="6.244"/></g><path d="m158.582 157.452c1.353.952 2.905 1.409 4.442 1.409 2.429 0 4.819-1.142 6.324-3.278 2.457-3.489 1.62-8.309-1.869-10.766-7.547-5.314-16.208-8.702-25.298-9.947-1.581 4.29-2.699 8.804-3.288 13.483-.109.869-.839 1.527-1.715 1.51-.153-.003-.307-.003-.46-.004 7.869.442 15.422 3.056 21.864 7.593z" fill="#804e2b"/><path d="m289.973 102.713c-.303.922-1.319 1.407-2.217 1.051 7.917 3.484 14.724 9.458 19.207 16.888 1.452 2.405 4.005 3.736 6.623 3.736 1.359 0 2.736-.359 3.985-1.112 3.653-2.204 4.828-6.953 2.624-10.607-5.597-9.275-13.852-16.888-23.495-21.762-2.969 3.413-5.284 7.41-6.727 11.806z" fill="#804e2b"/><path d="m357.022 149.696c1.486 3.999 5.929 6.036 9.934 4.551 4.692-1.743 9.638-2.627 14.7-2.627 4.688 0 9.269.758 13.646 2.253-.785-.339-1.2-1.183-.993-2.014.74-2.975 1.139-6.085 1.139-9.289 0-1.632-.113-3.237-.311-4.816-4.389-1.053-8.899-1.586-13.481-1.586-6.905 0-13.662 1.209-20.082 3.595-4.001 1.485-6.038 5.933-4.552 9.933z" fill="#804e2b"/></g></svg>