<svg width="512" height="512" viewBox="0 0 512 512" fill="none" xmlns="http://www.w3.org/2000/svg">
<path d="M425.626 199.805C425.626 179.19 413.131 161.504 395.306 153.875C394.517 153.538 394.101 152.691 394.308 151.858C395.048 148.883 395.447 145.773 395.447 142.569C395.447 121.304 378.208 104.065 356.943 104.065C356.939 104.065 356.934 104.065 356.93 104.065C356.169 104.066 355.507 103.581 355.273 102.857C350.813 89.067 337.877 79.09 322.601 79.09C307.379 79.09 294.475 88.997 289.973 102.713C289.667 103.645 288.631 104.134 287.725 103.756C281.803 101.28 275.307 99.903 268.487 99.903C258.111 99.903 248.482 103.077 240.496 108.493C239.867 108.92 239.046 108.887 238.456 108.408C227.901 99.842 214.456 94.7 199.804 94.7C168.518 94.7 142.7 118.1 138.892 148.353C138.783 149.222 138.053 149.88 137.177 149.863C136.893 149.858 136.609 149.855 136.324 149.855C108.737 149.855 86.373 172.219 86.373 199.806H425.626V199.805Z" fill="#B36D3C"/>
<path d="M290.942 199.805H425.626C425.626 179.19 413.131 161.504 395.306 153.875C394.517 153.538 394.101 152.691 394.308 151.858C395.048 148.883 395.447 145.773 395.447 142.569C395.447 121.304 378.208 104.065 356.943 104.065C356.939 104.065 356.934 104.065 356.93 104.065C356.169 104.066 355.507 103.581 355.273 102.857C350.813 89.067 337.877 79.09 322.601 79.09C319.603 79.09 316.695 79.475 313.922 80.198C324.46 117.749 316.412 161.996 290.942 199.805V199.805Z" fill="#995E34"/>
<path d="M501.593 432.911H10.407C4.659 432.911 0 428.251 0 422.504V376.715C0 370.968 4.659 366.309 10.407 366.309H501.594C507.341 366.309 512 370.968 512 376.715V422.504C512 428.251 507.341 432.911 501.593 432.911Z" fill="#E175A5"/>
<path d="M501.593 366.309H468.292C474.039 366.309 478.698 370.968 478.698 376.715V422.504C478.698 428.251 474.039 432.911 468.292 432.911H501.593C507.34 432.911 511.999 428.252 511.999 422.504V376.715C512 370.968 507.341 366.309 501.593 366.309Z" fill="#DE5791"/>
<path d="M484.943 366.309H27.057L51.274 217.28C52.911 207.206 61.611 199.805 71.818 199.805H440.183C450.389 199.805 459.089 207.206 460.727 217.28L484.943 366.309Z" fill="#E175A5"/>
<path d="M460.726 217.28C459.089 207.206 450.389 199.805 440.182 199.805H410.016C420.222 199.805 428.922 207.206 430.56 217.28L445.441 308.857C447.498 321.518 437.724 333.008 424.897 333.008H32.468L27.057 366.309H484.943L460.726 217.28Z" fill="#DE5791"/>
<path d="M201.836 145.691C205.284 145.691 208.08 142.895 208.08 139.447C208.08 135.999 205.284 133.203 201.836 133.203C198.388 133.203 195.592 135.999 195.592 139.447C195.592 142.895 198.388 145.691 201.836 145.691Z" fill="#995E34"/>
<path d="M243.462 151.415C246.91 151.415 249.706 148.619 249.706 145.171C249.706 141.723 246.91 138.927 243.462 138.927C240.014 138.927 237.218 141.723 237.218 145.171C237.218 148.619 240.014 151.415 243.462 151.415Z" fill="#995E34"/>
<path d="M213.283 174.309C216.731 174.309 219.527 171.514 219.527 168.065C219.527 164.617 216.731 161.821 213.283 161.821C209.834 161.821 207.039 164.617 207.039 168.065C207.039 171.514 209.834 174.309 213.283 174.309Z" fill="#995E34"/>
<path d="M158.582 157.452C159.935 158.404 161.487 158.861 163.024 158.861C165.453 158.861 167.843 157.719 169.348 155.583C171.805 152.094 170.968 147.274 167.479 144.817C159.932 139.503 151.271 136.115 142.181 134.87C140.6 139.16 139.482 143.674 138.893 148.353C138.784 149.222 138.054 149.88 137.178 149.863C137.025 149.86 136.871 149.86 136.718 149.859C144.587 150.301 152.14 152.915 158.582 157.452Z" fill="#804E2B"/>
<path d="M289.973 102.713C289.67 103.635 288.654 104.12 287.756 103.764C295.673 107.248 302.48 113.222 306.963 120.652C308.415 123.057 310.968 124.388 313.586 124.388C314.945 124.388 316.322 124.029 317.571 123.276C321.224 121.072 322.399 116.323 320.195 112.669C314.598 103.394 306.343 95.781 296.7 90.907C293.731 94.32 291.416 98.317 289.973 102.713V102.713Z" fill="#804E2B"/>
<path d="M357.022 149.696C358.508 153.695 362.951 155.732 366.956 154.247C371.648 152.504 376.594 151.62 381.656 151.62C386.344 151.62 390.925 152.378 395.302 153.873C394.517 153.534 394.102 152.69 394.309 151.859C395.049 148.884 395.448 145.774 395.448 142.57C395.448 140.938 395.335 139.333 395.137 137.754C390.748 136.701 386.238 136.168 381.656 136.168C374.751 136.168 367.994 137.377 361.574 139.763C357.573 141.248 355.536 145.696 357.022 149.696V149.696Z" fill="#804E2B"/>
</svg>
