<svg width="500" height="500" viewBox="0 0 500 500" fill="none" xmlns="http://www.w3.org/2000/svg">
<g clip-path="url(#clip0)">
<path d="M382.155 147.575L382.155 147.575C382.82 144.9 383.179 142.106 383.179 139.228C383.179 120.118 367.687 104.626 348.577 104.626H348.577H348.577H348.576H348.576H348.576H348.576H348.575H348.575H348.575H348.575H348.574H348.574H348.574H348.574H348.573H348.573H348.573H348.573H348.573H348.572H348.572H348.572H348.572H348.571H348.571H348.571H348.571H348.57H348.57H348.57H348.57H348.569H348.569H348.569H348.569H348.568L382.155 147.575ZM382.155 147.575C381.602 149.801 382.722 152.112 384.861 153.027M382.155 147.575L384.861 153.027M286.027 101.241L286.027 101.241C285.196 103.772 282.365 105.152 279.826 104.093L279.824 104.092C274.398 101.823 268.447 100.562 262.194 100.562C252.683 100.562 243.863 103.469 236.543 108.433C234.84 109.588 232.586 109.503 230.977 108.197L286.027 101.241ZM286.027 101.241C290.032 89.0411 301.51 80.2363 315.04 80.2363C328.617 80.2363 340.124 89.1026 344.092 101.369L286.027 101.241ZM384.861 153.027C400.333 159.649 411.415 174.531 412.554 192.123M384.861 153.027L412.554 192.123M412.554 192.123H87.4454C88.9905 168.238 108.853 149.343 133.129 149.343C133.385 149.343 133.644 149.345 133.906 149.35C133.907 149.35 133.908 149.35 133.909 149.35L412.554 192.123ZM344.092 101.369C344.718 103.305 346.511 104.628 348.567 104.626L344.092 101.369ZM195.121 95.4805C208.715 95.4805 221.182 100.248 230.976 108.196L138.613 145.249C142.146 117.187 166.1 95.4805 195.121 95.4805Z" fill="#B36D3C" stroke="black" stroke-width="6"/>
<path d="M382.155 147.575L382.155 147.575C382.82 144.9 383.179 142.106 383.179 139.228C383.179 120.118 367.687 104.626 348.577 104.626H348.577H348.577H348.577H348.577H348.577H348.577H348.577H348.577H348.576H348.576H348.576H348.576H348.576H348.576H348.576H348.576H348.576H348.576H348.576H348.576H348.576H348.576H348.575H348.575H348.575H348.575H348.575H348.575H348.575H348.575H348.575H348.575H348.575H348.575H348.575H348.575H348.574H348.574H348.574H348.574H348.574H348.574H348.574H348.574H348.574H348.574H348.574H348.574H348.574H348.573H348.573H348.573H348.573H348.573H348.573H348.573H348.573H348.573H348.573H348.573H348.573H348.573H348.572H348.572H348.572H348.572H348.572H348.572H348.572H348.572H348.572H348.572H348.572H348.572H348.572H348.571H348.571H348.571H348.571H348.571H348.571H348.571H348.571H348.571H348.571H348.571H348.571H348.571H348.57H348.57H348.57H348.57H348.57H348.57H348.57H348.57H348.57H348.57H348.57H348.57H348.57H348.569H348.569H348.569H348.569H348.569H348.569H348.569H348.569H348.569H348.569H348.569H348.569H348.569H348.568H348.568L382.155 147.575ZM382.155 147.575C381.602 149.801 382.722 152.112 384.861 153.027L382.155 147.575ZM310.277 80.606C311.828 80.3628 313.418 80.2363 315.04 80.2363C328.617 80.2363 340.124 89.1026 344.092 101.369L310.277 80.606ZM310.277 80.606C319.164 115.979 311.891 156.663 289.652 192.122H412.554C411.415 174.531 400.334 159.65 384.863 153.027L310.277 80.606ZM344.092 101.369C344.718 103.305 346.511 104.628 348.567 104.626L344.092 101.369Z" fill="#995E34" stroke="black" stroke-width="6"/>
<path d="M489.837 419.765H10.1631C6.20685 419.765 3 416.557 3 412.602V367.886C3 363.93 6.20647 360.724 10.1631 360.724H489.838C493.793 360.724 497 363.93 497 367.886V412.602C497 416.557 493.793 419.765 489.837 419.765Z" fill="#85D3C1" stroke="black" stroke-width="6"/>
<path d="M496.999 367.885V367.886V412.602C496.999 416.558 493.792 419.765 489.837 419.765H468.361C469.7 417.703 470.479 415.243 470.479 412.602V367.886C470.479 365.244 469.7 362.785 468.361 360.724H489.837C493.794 360.724 497 363.93 496.999 367.885Z" fill="#85D3C1" style="mix-blend-mode:multiply"/>
<path d="M496.999 367.885V367.886V412.602C496.999 416.558 493.792 419.765 489.837 419.765H468.361C469.7 417.703 470.479 415.243 470.479 412.602V367.886C470.479 365.244 469.7 362.785 468.361 360.724H489.837C493.794 360.724 497 363.93 496.999 367.885Z" stroke="black" stroke-width="6"/>
<path d="M446.968 212.669L470.05 354.724H29.9497L53.0334 212.669C54.3961 204.283 61.6382 198.122 70.1348 198.122H429.866C438.362 198.122 445.604 204.283 446.968 212.669Z" fill="#85D3C1" stroke="black" stroke-width="6"/>
<path d="M470.05 354.724H29.9497L34.2589 328.203H414.938C429.314 328.203 440.267 315.326 437.962 301.137L435.001 301.618L437.962 301.137L423.43 211.706C422.55 206.296 419.853 201.573 416.023 198.122H429.865C438.362 198.122 445.604 204.283 446.967 212.669L470.05 354.724Z" fill="#85D3C1" style="mix-blend-mode:multiply"/>
<path d="M470.05 354.724H29.9497L34.2589 328.203H414.938C429.314 328.203 440.267 315.326 437.962 301.137L435.001 301.618L437.962 301.137L423.43 211.706C422.55 206.296 419.853 201.573 416.023 198.122H429.865C438.362 198.122 445.604 204.283 446.967 212.669L470.05 354.724Z" stroke="black" stroke-width="6"/>
<path d="M200.203 136.179C200.203 137.89 198.816 139.276 197.105 139.276C195.395 139.276 194.008 137.89 194.008 136.179C194.008 134.468 195.395 133.081 197.105 133.081C198.816 133.081 200.203 134.468 200.203 136.179Z" fill="#995E34" stroke="black" stroke-width="6"/>
<path d="M240.854 141.769C240.854 143.479 239.467 144.866 237.756 144.866C236.045 144.866 234.658 143.479 234.658 141.769C234.658 140.058 236.045 138.671 237.756 138.671C239.467 138.671 240.854 140.058 240.854 141.769Z" fill="#995E34" stroke="black" stroke-width="6"/>
<path d="M211.382 164.126C211.382 165.837 209.995 167.224 208.284 167.224C206.573 167.224 205.187 165.837 205.187 164.126C205.187 162.415 206.573 161.028 208.284 161.028C209.995 161.028 211.382 162.415 211.382 164.126Z" fill="#995E34" stroke="black" stroke-width="6"/>
<path d="M138.795 143.937C145.179 145.046 151.249 147.546 156.592 151.308L138.795 143.937ZM138.795 143.937C139.251 140.896 139.947 137.934 140.864 135.07C148.382 136.454 155.524 139.438 161.826 143.876C163.879 145.321 164.371 148.157 162.926 150.209C162.042 151.464 160.641 152.138 159.203 152.138C158.3 152.138 157.392 151.871 156.593 151.309L138.795 143.937Z" fill="#804E2B" stroke="black" stroke-width="6"/>
<path d="M286.242 100.61C292.81 104.351 298.417 109.778 302.337 116.274C303.19 117.686 304.688 118.473 306.236 118.473C307.032 118.473 307.839 118.264 308.578 117.818L286.242 100.61ZM286.242 100.61C287.265 97.7144 288.718 95.0182 290.523 92.5921C298.526 97.1069 305.366 103.698 310.122 111.578L286.242 100.61ZM310.122 111.578C311.418 113.728 310.727 116.521 308.579 117.818L310.122 111.578Z" fill="#804E2B" stroke="black" stroke-width="6"/>
<path d="M354.145 139.299L354.144 139.3C351.791 140.173 350.592 142.789 351.466 145.143L354.145 139.299ZM354.145 139.299C360.077 137.095 366.321 135.977 372.711 135.977C376.232 135.977 379.704 136.317 383.102 136.989C383.153 137.732 383.18 138.479 383.18 139.229C383.18 141.599 382.937 143.912 382.48 146.148C379.293 145.429 376.025 145.066 372.711 145.066C367.416 145.066 362.232 145.992 357.312 147.819L354.145 139.299ZM357.312 147.819C354.952 148.694 352.34 147.494 351.467 145.143L357.312 147.819Z" fill="#804E2B" stroke="black" stroke-width="6"/>
</g>
<defs>
<clipPath id="clip0">
<rect width="500" height="500" fill="white"/>
</clipPath>
</defs>
</svg>
