<svg width="150" height="150" viewBox="0 0 150 150" fill="none" xmlns="http://www.w3.org/2000/svg">
<path d="M3.79746 125.071L39.9826 89.0812L61.1654 110.264L24.9803 146.254C24.8051 146.429 24.5773 146.543 24.3316 146.577C24.086 146.611 23.8359 146.564 23.6194 146.443C23.4029 146.322 23.2319 146.133 23.1324 145.906C23.033 145.679 23.0105 145.425 23.0684 145.184L25.4596 135.183L28.357 123.066C28.4022 122.876 28.3981 122.679 28.3452 122.492C28.2923 122.304 28.1922 122.134 28.0547 121.996C27.9171 121.859 27.7466 121.759 27.5594 121.706C27.3722 121.653 27.1746 121.649 26.9854 121.694L4.8668 126.983C4.62561 127.04 4.37212 127.018 4.1449 126.919C3.91769 126.819 3.7292 126.648 3.60812 126.432C3.48705 126.215 3.44002 125.965 3.4742 125.719C3.50838 125.474 3.62189 125.246 3.79746 125.071Z" fill="#44C7B6"/>
<path d="M146.204 125.071L110.019 89.0812L88.8363 110.264L125.021 146.254C125.196 146.429 125.424 146.543 125.67 146.577C125.915 146.611 126.165 146.564 126.382 146.443C126.598 146.322 126.769 146.133 126.869 145.906C126.968 145.679 126.991 145.425 126.933 145.184L124.542 135.183L121.645 123.066C121.599 122.876 121.603 122.679 121.656 122.491C121.709 122.304 121.809 122.134 121.947 121.996C122.084 121.858 122.255 121.758 122.442 121.705C122.629 121.653 122.827 121.649 123.016 121.694L145.134 126.983C145.376 127.04 145.629 127.018 145.856 126.919C146.084 126.819 146.272 126.648 146.393 126.432C146.514 126.215 146.561 125.965 146.527 125.719C146.493 125.474 146.379 125.246 146.204 125.071Z" fill="#44C7B6"/>
<path d="M75.0006 126.17C108.903 126.17 136.386 98.6868 136.386 64.7847C136.386 30.8827 108.903 3.3996 75.0006 3.3996C41.0985 3.3996 13.6154 30.8827 13.6154 64.7847C13.6154 98.6868 41.0985 126.17 75.0006 126.17Z" fill="#4BDBC3"/>
<path d="M75.0006 113.313C101.802 113.313 123.529 91.5864 123.529 64.7848C123.529 37.9832 101.802 16.2563 75.0006 16.2563C48.199 16.2563 26.4721 37.9832 26.4721 64.7848C26.4721 91.5864 48.199 113.313 75.0006 113.313Z" fill="#44C7B6"/>
<path d="M107.665 72.9838H42.3357C40.7177 72.9838 39.4061 74.2954 39.4061 75.9135V82.6517C39.4061 84.2698 40.7177 85.5814 42.3357 85.5814H107.665C109.283 85.5814 110.595 84.2698 110.595 82.6517V75.9135C110.595 74.2954 109.283 72.9838 107.665 72.9838Z" fill="#87828E"/>
<path d="M75 45.0052C78.6419 45.0052 82.2482 45.7226 85.613 47.1163C88.9777 48.51 92.035 50.5528 94.6102 53.1281C97.1854 55.7033 99.2282 58.7606 100.622 62.1253C102.016 65.49 102.733 69.0963 102.733 72.7382V72.9838H47.2676V72.7382C47.2676 65.3831 50.1894 58.3292 55.3902 53.1283C60.591 47.9273 67.6448 45.0054 75 45.0052Z" fill="#87828E"/>
<path d="M51.1236 85.5838H42.3346C41.5576 85.5838 40.8124 85.2751 40.263 84.7257C39.7135 84.1763 39.4049 83.4311 39.4049 82.6541V75.9158C39.4049 75.1388 39.7135 74.3937 40.263 73.8442C40.8124 73.2948 41.5576 72.9861 42.3346 72.9861H51.1236C50.3466 72.9861 49.6015 73.2948 49.052 73.8442C48.5026 74.3937 48.1939 75.1388 48.1939 75.9158V82.6541C48.1939 83.4311 48.5026 84.1763 49.052 84.7257C49.6015 85.2751 50.3466 85.5838 51.1236 85.5838Z" fill="#A4A4A5"/>
<path d="M79.3945 45.3586C72.884 46.4019 66.9584 49.7314 62.6812 54.7495C58.4041 59.7676 56.0554 66.1458 56.0566 72.7394V72.9861H47.2676V72.7394C47.2676 69.0976 47.9849 65.4914 49.3786 62.1268C50.7723 58.7622 52.8151 55.705 55.3903 53.1299C57.9655 50.5547 61.0227 48.512 64.3873 47.1184C67.752 45.7248 71.3582 45.0075 75 45.0076C76.4719 45.0054 77.9416 45.1228 79.3945 45.3586Z" fill="#A4A4A5"/>
<path d="M110.596 75.9158V82.6541C110.596 83.4311 110.288 84.1763 109.738 84.7257C109.189 85.2751 108.444 85.5838 107.667 85.5838H98.8776C99.6546 85.5838 100.4 85.2751 100.949 84.7257C101.499 84.1763 101.807 83.4311 101.807 82.6541V75.9158C101.807 75.1388 101.499 74.3937 100.949 73.8442C100.4 73.2948 99.6546 72.9861 98.8776 72.9861H107.667C108.444 72.9861 109.189 73.2948 109.738 73.8442C110.288 74.3937 110.596 75.1388 110.596 75.9158Z" fill="#796E84"/>
<path d="M102.733 72.7395V72.9861H93.9439V72.7395C93.9453 66.1458 91.5967 59.7676 87.3195 54.7494C83.0423 49.7313 77.1166 46.4018 70.606 45.3586C72.059 45.1226 73.5286 45.005 75.0006 45.007C78.6426 45.0064 82.2491 45.7232 85.614 47.1166C88.9789 48.51 92.0364 50.5527 94.6117 53.1279C97.187 55.7032 99.2298 58.7606 100.623 62.1255C102.017 65.4904 102.734 69.0969 102.733 72.7389V72.7395Z" fill="#796E84"/>
<path d="M79.3945 113.117C77.9473 113.251 76.4824 113.318 75 113.316C62.1583 113.271 49.8577 108.138 40.793 99.0421C31.7282 89.9458 26.6384 77.6275 26.6384 64.7857C26.6384 51.9438 31.7282 39.6255 40.793 30.5292C49.8577 21.4329 62.1583 16.3003 75 16.2557C76.4824 16.2557 77.9473 16.3219 79.3945 16.4543C67.3342 17.5513 56.1197 23.1177 47.9535 32.0603C39.7874 41.0029 35.2597 52.6755 35.2597 64.7857C35.2597 76.8958 39.7874 88.5684 47.9535 97.511C56.1197 106.454 67.3342 112.02 79.3945 113.117Z" fill="#4BDBC3"/>
<path d="M123.528 64.783C123.528 77.6539 118.416 89.9977 109.315 99.0993C100.214 108.201 87.8709 113.315 75 113.316C73.5156 113.316 72.0508 113.249 70.6055 113.117C82.6658 112.02 93.8803 106.454 102.046 97.511C110.213 88.5684 114.74 76.8958 114.74 64.7857C114.74 52.6755 110.213 41.0029 102.046 32.0603C93.8803 23.1177 82.6658 17.5513 70.6055 16.4543C72.0508 16.3195 73.5156 16.2533 75 16.2557C81.3728 16.2556 87.6831 17.5107 93.5708 19.9494C99.4585 22.3881 104.808 25.9626 109.314 30.4688C113.821 34.975 117.395 40.3246 119.834 46.2123C122.273 52.0999 123.528 58.4103 123.528 64.783Z" fill="#3BB2A0"/>
<path d="M147.856 123.408L126.544 102.217C133.457 92.7094 137.606 81.4751 138.532 69.7566C139.457 58.038 137.124 46.2917 131.789 35.8169C126.454 25.3421 118.326 16.5468 108.304 10.4039C98.2817 4.26096 86.7556 1.0097 75.0006 1.0097C63.2455 1.0097 51.7195 4.26096 41.6972 10.4039C31.675 16.5468 23.547 25.3421 18.2123 35.8169C12.8776 46.2917 10.544 58.038 11.4695 69.7566C12.3951 81.4751 16.5438 92.7094 23.4568 102.217L2.14043 123.412C1.60535 123.949 1.25996 124.645 1.15667 125.396C1.05339 126.147 1.19785 126.911 1.56813 127.572C1.93841 128.233 2.5143 128.756 3.20839 129.06C3.90248 129.364 4.67688 129.434 5.41406 129.258L25.6184 124.429L20.7914 144.632C20.6142 145.369 20.6824 146.143 20.9855 146.838C21.2886 147.532 21.8102 148.109 22.4709 148.48C23.1316 148.851 23.8954 148.997 24.6463 148.895C25.3973 148.792 26.0942 148.447 26.6314 147.913L50.9021 123.777C66.3466 130.095 83.6545 130.095 99.099 123.777L123.357 147.902C123.893 148.438 124.588 148.785 125.339 148.89C126.09 148.994 126.854 148.852 127.516 148.483C128.178 148.114 128.702 147.539 129.008 146.845C129.313 146.152 129.385 145.377 129.21 144.64L124.381 124.43L144.581 129.258C145.319 129.436 146.096 129.368 146.792 129.064C147.487 128.76 148.065 128.237 148.436 127.574C148.807 126.911 148.951 126.146 148.846 125.393C148.741 124.641 148.394 123.944 147.856 123.408ZM26.3367 141.596L30.6316 123.616C30.7715 123.037 30.7604 122.432 30.5994 121.859C30.4383 121.285 30.1328 120.763 29.7119 120.341C29.2911 119.919 28.7691 119.613 28.1958 119.451C27.6226 119.289 27.0174 119.276 26.4381 119.415L8.49609 123.704L26.3742 105.927C31.9114 112.466 38.703 117.829 46.3477 121.699L26.3367 141.596ZM15.9592 64.7848C15.9591 53.1073 19.4217 41.692 25.9093 31.9825C32.3969 22.273 41.6181 14.7054 52.4066 10.2366C63.1952 5.76776 75.0667 4.59851 86.5198 6.87669C97.9729 9.15487 108.493 14.7781 116.75 23.0354C125.008 31.2927 130.631 41.8131 132.909 53.2662C135.187 64.7193 134.017 76.5907 129.549 87.3793C125.08 98.1678 117.512 107.389 107.802 113.876C98.0928 120.364 86.6775 123.826 75 123.826C59.3468 123.808 44.3398 117.582 33.2713 106.514C22.2029 95.4451 15.9769 80.438 15.9592 64.7848ZM123.568 119.417C122.989 119.277 122.384 119.288 121.811 119.45C121.237 119.611 120.715 119.916 120.293 120.337C119.872 120.758 119.565 121.28 119.403 121.853C119.241 122.426 119.229 123.031 119.368 123.611L123.664 141.599L103.652 121.699C111.297 117.829 118.088 112.467 123.625 105.929L141.504 123.704L123.568 119.417Z" fill="#5F266D"/>
<path d="M75 13.9119C64.9383 13.9118 55.1025 16.8954 46.7364 22.4853C38.3703 28.0752 31.8497 36.0204 27.9992 45.3162C24.1487 54.612 23.1411 64.8408 25.104 74.7092C27.0669 84.5776 31.912 93.6424 39.0267 100.757C46.1413 107.872 55.206 112.717 65.0744 114.68C74.9428 116.643 85.1716 115.636 94.4675 111.785C103.763 107.935 111.709 101.414 117.299 93.0483C122.889 84.6823 125.872 74.8465 125.872 64.7848C125.857 51.2972 120.492 38.3664 110.955 28.8292C101.418 19.292 88.4875 13.9273 75 13.9119ZM75 110.97C65.8653 110.97 56.9358 108.261 49.3406 103.186C41.7453 98.1113 35.8256 90.8981 32.3298 82.4588C28.8341 74.0195 27.9194 64.7332 29.7015 55.774C31.4835 46.8149 35.8823 38.5854 42.3414 32.1262C48.8006 25.667 57.0301 21.2683 65.9892 19.4862C74.9484 17.7042 84.2347 18.6189 92.674 22.1146C101.113 25.6103 108.326 31.5301 113.401 39.1254C118.476 46.7206 121.185 55.6501 121.185 64.7848C121.171 77.0295 116.301 88.7688 107.642 97.4271C98.984 106.085 87.2447 110.956 75 110.97Z" fill="#5F266D"/>
<path d="M57.7189 94.6125C56.6999 94.0199 55.7115 93.3761 54.7576 92.6836C54.5094 92.4925 54.2254 92.3532 53.9223 92.2738C53.6193 92.1944 53.3035 92.1765 52.9934 92.2212C52.6834 92.266 52.3855 92.3724 52.1173 92.5342C51.8491 92.6961 51.616 92.91 51.4319 93.1635C51.2478 93.4169 51.1164 93.7047 51.0454 94.0098C50.9744 94.3149 50.9653 94.6311 51.0186 94.9398C51.0719 95.2485 51.1865 95.5433 51.3557 95.807C51.5249 96.0706 51.7453 96.2976 52.0037 96.4746C53.0867 97.2615 54.209 97.9928 55.3664 98.6654C55.6327 98.8248 55.928 98.9297 56.2352 98.974C56.5423 99.0183 56.8553 99.0012 57.1558 98.9236C57.4562 98.846 57.7383 98.7095 57.9857 98.5221C58.233 98.3346 58.4406 98.0999 58.5965 97.8315C58.7524 97.5631 58.8534 97.2665 58.8937 96.9588C58.9341 96.6511 58.9129 96.3384 58.8314 96.0389C58.7499 95.7395 58.6098 95.4592 58.4191 95.2143C58.2285 94.9695 57.9911 94.7649 57.7207 94.6125H57.7189Z" fill="#5F266D"/>
<path d="M75 99.2508C71.7023 99.2535 68.4213 98.7835 65.257 97.8551C64.6607 97.6796 64.0191 97.7483 63.4733 98.0459C62.9276 98.3435 62.5224 98.8457 62.347 99.4421C62.1715 100.038 62.2402 100.68 62.5378 101.226C62.8354 101.772 63.3376 102.177 63.934 102.352C67.528 103.407 71.2545 103.941 75 103.938C75.6216 103.938 76.2177 103.691 76.6573 103.252C77.0968 102.812 77.3437 102.216 77.3437 101.595C77.3437 100.973 77.0968 100.377 76.6573 99.9372C76.2177 99.4977 75.6216 99.2508 75 99.2508Z" fill="#5F266D"/>
<path d="M107.665 70.6395H104.996C104.484 63.453 101.413 56.6883 96.3389 51.5731C91.2653 46.458 84.5258 43.3315 77.3437 42.7611V35.3367H83.1732C83.7948 35.3367 84.391 35.0898 84.8305 34.6503C85.27 34.2107 85.517 33.6146 85.517 32.993C85.517 32.3714 85.27 31.7752 84.8305 31.3357C84.391 30.8962 83.7948 30.6492 83.1732 30.6492H66.8256C66.204 30.6492 65.6078 30.8962 65.1683 31.3357C64.7288 31.7752 64.4818 32.3714 64.4818 32.993C64.4818 33.6146 64.7288 34.2107 65.1683 34.6503C65.6078 35.0898 66.204 35.3367 66.8256 35.3367H72.6562V42.7611C65.4744 43.3317 58.7351 46.4583 53.6616 51.5734C48.588 56.6886 45.5166 63.4532 45.0047 70.6395H42.3357C40.9376 70.641 39.5972 71.1971 38.6086 72.1857C37.6199 73.1744 37.0639 74.5148 37.0623 75.9129V82.6512C37.0639 84.0493 37.6199 85.3897 38.6086 86.3784C39.5972 87.367 40.9376 87.9231 42.3357 87.9246H107.668C109.066 87.9231 110.406 87.367 111.395 86.3784C112.384 85.3897 112.94 84.0493 112.941 82.6512V75.9129C112.94 74.5144 112.383 73.1736 111.394 72.1849C110.405 71.1962 109.064 70.6404 107.665 70.6395ZM75 47.3485C81.3683 47.3564 87.5017 49.7538 92.1872 54.0667C96.8728 58.3795 99.7692 64.2937 100.304 70.6395H49.6975C50.2318 64.2938 53.128 58.3797 57.8134 54.0669C62.4987 49.7541 68.6319 47.3565 75 47.3485ZM108.251 82.6512C108.251 82.8066 108.189 82.9556 108.079 83.0655C107.969 83.1754 107.82 83.2371 107.665 83.2371H42.3357C42.1803 83.2371 42.0313 83.1754 41.9214 83.0655C41.8115 82.9556 41.7498 82.8066 41.7498 82.6512V75.9129C41.7498 75.7575 41.8115 75.6085 41.9214 75.4986C42.0313 75.3887 42.1803 75.327 42.3357 75.327H107.668C107.823 75.327 107.972 75.3887 108.082 75.4986C108.192 75.6085 108.254 75.7575 108.254 75.9129L108.251 82.6512Z" fill="#5F266D"/>
</svg>
