<svg width="512" height="512" viewBox="0 0 512 512" fill="none" xmlns="http://www.w3.org/2000/svg">
<g clip-path="url(#clip0)">
<path d="M383.718 392.732C367.081 392.732 353.593 406.219 353.593 422.857H413.242C433.02 422.857 450.444 410.676 457.511 392.736L473.815 351.822C451.406 377.798 418.799 392.732 384.494 392.732H383.718Z" fill="#E8AB4C"/>
<path d="M408.348 392.732C427.545 393.102 450.789 376.236 467.461 367.77L473.816 351.822C451.245 377.997 418.28 392.958 383.718 392.732C367.081 392.732 353.593 406.219 353.593 422.857H378.223C378.223 406.219 391.71 392.732 408.348 392.732Z" fill="#E1763A"/>
<path d="M256.013 308.852L256.009 308.845C315.714 241.091 245.833 121.986 159.224 114.58C65.3193 106.317 -18.447 236.385 45.2444 308.846L45.2403 308.853C71.7838 337.588 112.658 347.718 150.626 347.811C188.59 347.719 229.474 337.585 256.013 308.852Z" fill="#FBF2E2"/>
<path d="M53.0246 167.116C60.4857 157.5 69.088 148.734 78.5534 141.224L82.9574 136.758C82.9574 115.93 66.073 99.0449 45.2444 99.0449C24.4157 99.0449 7.53137 115.929 7.53137 136.757V137.295C7.53137 158.123 24.4157 175.008 45.2444 175.008L53.0246 167.116Z" fill="#E8AB4C"/>
<path d="M63.7867 147.991L56.0065 155.882C35.1788 155.882 18.2935 138.998 18.2935 118.169V117.631C18.2935 114.844 18.6046 112.131 19.1787 109.516C12.0056 116.381 7.53137 126.043 7.53137 136.757V137.295C7.53137 158.122 24.4157 175.008 45.2444 175.008L53.0246 167.116C60.4857 157.5 69.088 148.734 78.5534 141.224L82.9574 136.758C82.9574 133.855 82.6181 131.033 81.9979 128.318C75.3849 134.31 69.2747 140.918 63.7867 147.991Z" fill="#E1763A"/>
<path d="M248.569 167.116C241.108 157.5 232.506 148.734 223.04 141.224L218.636 136.758C218.636 115.93 235.521 99.0449 256.349 99.0449C277.178 99.0449 294.062 115.929 294.062 136.758V137.296C294.062 158.124 277.178 175.009 256.349 175.009L248.569 167.116Z" fill="#E8AB4C"/>
<path d="M278.179 166.011L240.466 127.761C240.466 116.317 245.571 106.07 253.62 99.1533C234.068 100.554 218.637 116.848 218.637 136.757L223.041 141.223C232.507 148.733 241.109 157.499 248.57 167.115L256.35 175.007C265.733 175.007 279.098 166.011 278.179 166.011Z" fill="#E1763A"/>
<path d="M500.668 242.258C468.583 137.119 379.513 151.86 291.146 151.857C281.314 177.001 253.252 173.946 253.252 173.946C282.064 215.64 289.822 270.476 256.009 308.846L256.013 308.853C212.429 353.454 138.623 356.793 82.9574 334.984C82.9725 366.88 108.832 392.733 140.732 392.733L394.612 392.204C442.615 385.476 483.074 363.166 500.668 302.329C505.838 282.793 505.834 261.792 500.668 242.258Z" fill="#FBF2E2"/>
<path d="M151.879 371.507C129.82 371.507 110.655 359.141 100.922 340.967C94.7733 339.256 88.7655 337.259 82.9574 334.984C82.9725 366.88 108.832 392.733 140.732 392.733C185.061 392.664 248.942 397.056 287.094 371.226L151.879 371.507Z" fill="#F7E0BA"/>
<path d="M245.012 392.514L286.935 392.427C272.588 392.028 258.5 391.874 245.012 392.514Z" fill="#F7E0BA"/>
<path d="M269.399 304.229C309.758 271.002 298.227 191.661 277.376 168.604C266.794 173.776 253.252 173.945 253.252 173.945C275.506 206.15 281.721 269.988 269.399 304.229Z" fill="#F7E0BA"/>
<path d="M386.238 392.22L286.936 392.427C320.051 393.345 354.547 395.55 386.238 392.22Z" fill="#E8AB4C"/>
<path d="M212.412 392.732H240.954C242.3 392.65 243.653 392.579 245.012 392.515L214.118 392.579C213.55 392.63 212.981 392.683 212.412 392.732Z" fill="#E8AB4C"/>
<path d="M494.444 320.053C493.848 321.478 493.236 322.874 492.61 324.248C495.664 317.58 498.363 310.297 500.668 302.329C505.839 282.794 505.834 261.793 500.668 242.258C468.583 137.119 379.513 151.86 291.146 151.857C288.368 158.962 284.133 163.813 279.488 167.12C304.817 179.869 325.118 202.48 337.258 242.259C342.424 261.794 342.428 282.795 337.258 302.33C327.524 335.991 309.503 357.543 287.095 371.227L405.759 370.98C441.69 365.941 473.392 352.171 494.444 320.053Z" fill="#E8AB4C"/>
<path d="M492.61 324.247C493.236 322.873 493.848 321.477 494.444 320.052C473.392 352.17 441.69 365.941 405.758 370.977L287.094 371.224C265.651 384.317 240.191 390.203 214.119 392.577L386.239 392.219C429.281 387.696 467.142 372.959 489.332 330.915C489.498 330.597 492.537 324.404 492.61 324.247Z" fill="#E1763A"/>
<path d="M97.983 392.732C81.3455 392.732 67.8575 406.219 67.8575 422.857H127.507C147.284 422.857 164.699 410.671 171.766 392.732H97.983Z" fill="#FBF2E2"/>
<path d="M120.931 392.732H97.983C81.3455 392.732 67.8575 406.219 67.8575 422.857H90.8059C90.8059 406.219 104.294 392.732 120.931 392.732Z" fill="#F7E0BA"/>
<path d="M42.3328 182.8C42.6911 182.199 43.0484 181.598 43.4147 181C43.0474 181.597 42.6911 182.199 42.3328 182.8Z" fill="#E8AB4C"/>
<path d="M33.2518 200.665C33.4194 200.27 33.584 199.873 33.7557 199.48C33.584 199.874 33.4194 200.27 33.2518 200.665Z" fill="#E8AB4C"/>
<path d="M30.8571 206.678C31.0097 206.268 31.1632 205.859 31.3188 205.449C31.1632 205.858 31.0087 206.267 30.8571 206.678Z" fill="#E8AB4C"/>
<path d="M29.7842 209.667C29.9177 209.281 30.0542 208.897 30.1907 208.512C30.0542 208.897 29.9167 209.281 29.7842 209.667Z" fill="#E8AB4C"/>
<path d="M37.7933 190.98C38.0592 190.463 38.3302 189.949 38.6022 189.435C38.3292 189.949 38.0582 190.463 37.7933 190.98Z" fill="#E8AB4C"/>
<path d="M34.7673 197.217C35.0343 196.633 35.3073 196.051 35.5823 195.469C35.3073 196.051 35.0343 196.633 34.7673 197.217Z" fill="#E8AB4C"/>
<path d="M39.2747 188.177C39.5627 187.646 39.8528 187.115 40.1478 186.587C39.8538 187.115 39.5627 187.645 39.2747 188.177Z" fill="#E8AB4C"/>
<path d="M40.8002 185.431C41.1154 184.878 41.4305 184.325 41.7527 183.775C41.4305 184.325 41.1154 184.877 40.8002 185.431Z" fill="#E8AB4C"/>
<path d="M36.3671 193.822C36.608 193.327 36.8579 192.836 37.1048 192.342C36.8569 192.835 36.608 193.326 36.3671 193.822Z" fill="#E8AB4C"/>
<path d="M32.0083 203.687C32.1729 203.272 32.3365 202.858 32.5061 202.445C32.3365 202.858 32.1729 203.272 32.0083 203.687Z" fill="#E8AB4C"/>
<path d="M48.455 173.323C48.8856 172.706 49.3232 172.094 49.7628 171.485C49.3232 172.095 48.8866 172.706 48.455 173.323Z" fill="#E8AB4C"/>
<path d="M63.6342 154.832C64.2343 154.207 64.8385 153.587 65.4497 152.972C64.8385 153.588 64.2333 154.207 63.6342 154.832Z" fill="#E8AB4C"/>
<path d="M50.2907 170.758C50.7393 170.144 51.192 169.533 51.6496 168.926C51.191 169.533 50.7383 170.144 50.2907 170.758Z" fill="#E8AB4C"/>
<path d="M46.6565 175.948C47.0901 175.3 47.5327 174.658 47.9763 174.017C47.5327 174.658 47.0901 175.3 46.6565 175.948Z" fill="#E8AB4C"/>
<path d="M65.7629 152.658C66.4003 152.019 67.0426 151.385 67.6919 150.758C67.0426 151.385 66.4013 152.019 65.7629 152.658Z" fill="#E8AB4C"/>
<path d="M52.1354 168.284C52.6201 167.647 53.1079 167.012 53.6027 166.381C53.1079 167.012 52.6201 167.647 52.1354 168.284Z" fill="#E8AB4C"/>
<path d="M61.4894 157.112C62.0825 156.467 62.6827 155.829 63.2879 155.195C62.6837 155.83 62.0835 156.467 61.4894 157.112Z" fill="#E8AB4C"/>
<path d="M53.8978 166.011C56.2544 163.03 58.7203 160.134 61.2887 157.333C58.7193 160.134 56.2534 163.029 53.8978 166.011Z" fill="#E8AB4C"/>
<path d="M43.4749 180.903C44.4515 179.317 45.4591 177.748 46.4939 176.195C45.4591 177.748 44.4515 179.317 43.4749 180.903Z" fill="#E8AB4C"/>
<path d="M221.052 254.729H278.092C282.029 148.635 151.223 63.7606 67.7531 150.699C69.8889 148.638 72.0818 146.641 74.329 144.716C47.5066 175.913 33.0511 217.8 41.9373 254.73H80.2014C102.485 254.73 120.55 236.666 120.549 214.382C121.55 174.72 179.704 174.717 180.703 214.383C180.703 236.664 198.768 254.729 221.052 254.729Z" fill="#E8AB4C"/>
<path d="M63.2879 155.196C63.4033 155.074 63.5177 154.954 63.6332 154.833C63.5177 154.954 63.4033 155.074 63.2879 155.196Z" fill="#F7E0BA"/>
<path d="M61.2886 157.333C61.3556 157.26 61.4216 157.186 61.4896 157.113C61.4216 157.186 61.3556 157.259 61.2886 157.333Z" fill="#F7E0BA"/>
<path d="M67.6909 150.757C67.7109 150.737 67.7319 150.718 67.7519 150.698C67.7319 150.718 67.7119 150.737 67.6909 150.757Z" fill="#F7E0BA"/>
<path d="M45.2444 308.846L45.2403 308.853C97.2934 361.694 203.946 361.708 256.013 308.853L256.009 308.846C257.521 307.132 258.927 305.375 260.274 303.597C204.482 343.785 111.162 342.586 61.5867 292.507L61.5907 292.5C51.5563 281.083 45.1862 268.238 41.9363 254.729H23.1621C23.0969 253.672 23.1621 287.815 45.2444 308.846Z" fill="#F7E0BA"/>
<path d="M65.4487 152.973L65.7629 152.658C65.6585 152.763 65.5531 152.867 65.4487 152.973Z" fill="#F7E0BA"/>
<path d="M47.9763 174.017C48.1359 173.786 48.2945 173.554 48.4561 173.324C48.2945 173.554 48.1359 173.785 47.9763 174.017Z" fill="#F7E0BA"/>
<path d="M46.4939 176.194C46.5479 176.112 46.6009 176.03 46.6559 175.948C46.6009 176.03 46.5489 176.112 46.4939 176.194Z" fill="#F7E0BA"/>
<path d="M35.5823 195.469C35.8422 194.92 36.1002 194.369 36.3671 193.822C36.1002 194.369 35.8422 194.919 35.5823 195.469Z" fill="#F7E0BA"/>
<path d="M41.7527 183.775C41.9434 183.448 42.1391 183.125 42.3328 182.8C42.1391 183.124 41.9434 183.448 41.7527 183.775Z" fill="#F7E0BA"/>
<path d="M33.7556 199.48C34.0848 198.723 34.425 197.97 34.7683 197.218C34.425 197.97 34.0848 198.723 33.7556 199.48Z" fill="#F7E0BA"/>
<path d="M43.4147 181C43.4347 180.968 43.4557 180.936 43.4757 180.903C43.4547 180.935 43.4347 180.967 43.4147 181Z" fill="#F7E0BA"/>
<path d="M38.6013 189.435C38.8241 189.015 39.0479 188.595 39.2747 188.177C39.0479 188.595 38.8241 189.016 38.6013 189.435Z" fill="#F7E0BA"/>
<path d="M40.1478 186.587C40.3636 186.2 40.5814 185.815 40.8002 185.431C40.5814 185.815 40.3636 186.199 40.1478 186.587Z" fill="#F7E0BA"/>
<path d="M37.1048 192.342C37.3326 191.887 37.5604 191.432 37.7933 190.98C37.5594 191.432 37.3326 191.887 37.1048 192.342Z" fill="#F7E0BA"/>
<path d="M53.6027 166.381C53.7001 166.257 53.7994 166.134 53.8978 166.011C53.7994 166.134 53.7001 166.258 53.6027 166.381Z" fill="#F7E0BA"/>
<path d="M49.7638 171.485C49.9384 171.242 50.1141 171 50.2907 170.757C50.1141 171 49.9384 171.243 49.7638 171.485Z" fill="#F7E0BA"/>
<path d="M30.1907 208.512C30.4085 207.9 30.6303 207.288 30.8571 206.678C30.6303 207.288 30.4085 207.899 30.1907 208.512Z" fill="#F7E0BA"/>
<path d="M51.6486 168.925C51.8102 168.711 51.9728 168.497 52.1354 168.284C51.9728 168.498 51.8102 168.711 51.6486 168.925Z" fill="#F7E0BA"/>
<path d="M31.3188 205.449C31.5436 204.861 31.7744 204.274 32.0083 203.687C31.7754 204.274 31.5446 204.861 31.3188 205.449Z" fill="#F7E0BA"/>
<path d="M32.5061 202.445C32.749 201.85 33.0009 201.258 33.2518 200.666C32.9999 201.258 32.749 201.85 32.5061 202.445Z" fill="#F7E0BA"/>
<path d="M74.329 144.715C43.0243 171.828 20.9591 212.61 23.1632 254.729H41.9374C33.0511 217.799 47.5066 175.912 74.329 144.715Z" fill="#E1763A"/>
<path d="M120.517 84.1106C120.517 84.1106 109.712 159.384 164.676 159.384V115.224C164.677 115.224 131.088 114.22 120.517 84.1106Z" fill="#E8AB4C"/>
<path d="M136.06 105.111C129.75 100.511 123.931 93.8359 120.517 84.1106C120.517 84.1106 110.715 159.384 165.681 159.384V138.394C146.687 136.757 139.779 119.604 136.06 105.111Z" fill="#E1763A"/>
<path d="M225.9 355.095V370.758C225.9 382.893 235.737 392.732 247.873 392.732H233.475C216.838 392.732 203.35 406.219 203.35 422.857H262.999C285.303 422.857 304.615 407.365 309.452 385.593L316.228 355.095L309.122 353.495L225.9 355.095Z" fill="#FBF2E2"/>
<path d="M256.009 399.777H270.166V392.731C258.031 392.731 248.193 382.893 248.193 370.757V355.094H225.899V370.757C225.899 382.892 235.736 392.731 247.872 392.731H233.474C216.837 392.731 203.349 406.218 203.349 422.856H225.643C225.644 406.219 239.372 399.777 256.009 399.777Z" fill="#F7E0BA"/>
<path d="M293.646 189.493H308.7V204.548H293.646V189.493Z" fill="white"/>
<path d="M323.755 189.493H338.81V204.548H323.755V189.493Z" fill="white"/>
<path d="M180.736 219.603H195.79V234.657H180.736V219.603Z" fill="black"/>
<path d="M105.462 219.603H120.517V234.657H105.462V219.603Z" fill="black"/>
<path d="M158.154 294.876V274.12L177.24 255.034L166.594 244.389L150.626 260.357L134.659 244.389L124.014 255.034L143.099 274.12V294.876H158.154Z" fill="black"/>
<path d="M491.295 307.581L505.597 312.282C507.313 307.061 508.61 302.033 509.633 296.636L494.935 293.475C494.033 298.231 492.807 302.979 491.295 307.581Z" fill="black"/>
<path d="M384.007 144.329H301.041C303 131.88 299.898 118.899 292.061 108.98L280.184 118.23C295.316 136.955 281.861 166.901 257.684 167.447C254.898 163.501 251.928 159.669 248.792 155.97L267.629 135.524L256.558 125.323L238.501 144.921C234.618 141.137 230.542 137.553 226.282 134.212C227.49 113.315 251.984 99.7694 270.409 110.036L277.435 96.7193C252.711 82.9011 219.265 97.9528 212.729 124.794C198.517 116.12 182.748 110.091 165.9 107.758L165.902 107.698C154.579 106.357 136.111 103.095 127.621 81.6155L113.054 83.137C112.925 84.1236 111.282 97.3968 113.311 113.112C104.908 116.04 96.7094 119.935 88.8458 124.715C74.6061 74.7716 0.652408 84.23 0.0030489 136.758C-0.259906 158.271 14.6914 176.549 34.7904 181.303C13.8905 218.455 7.04362 262.649 28.3982 298.729L41.3382 291.033C7.82547 231.519 57.0944 150.393 116.372 128.017C122.339 150.589 140.466 167.615 165.682 166.911V151.857C140.162 152.947 129.372 129.509 127.889 108.147C138.379 117.28 150.969 120.704 158.601 121.986C213.181 127.725 270.322 185.151 270.822 249.714C271.96 352.12 103.954 364.086 50.8106 303.789L39.6722 313.917C49.2409 324.44 61.4523 333.162 75.6328 339.85C76.9887 358.048 85.8188 374.195 99.075 385.204C73.9999 384.705 57.6966 406.32 60.3312 430.384H127.508C148.548 430.384 167.302 418.716 176.635 400.259H203.383C196.724 408.496 195.239 419.706 195.824 430.384H263.001C284.301 430.384 302.978 418.498 312.159 400.259H353.623C346.964 408.495 345.482 419.707 346.066 430.384H413.244C436.043 430.384 456.169 416.689 464.504 395.523L479.798 357.148C487.478 348.485 493.986 338.789 499.104 328.286L485.571 321.692C448.963 393.175 385.557 386.029 317.252 385.205L323.579 353.463H308.882L302.107 383.961C298.003 402.431 281.923 415.331 263.001 415.331H212.169C218.665 398.687 232.71 400.005 247.876 400.26V385.205C239.91 385.205 233.429 378.725 233.429 370.759V352.917L218.374 359.113C218.551 367.888 217.061 377.661 222.171 385.205H142.762C118.33 386.132 97.0335 369.269 91.7925 346.3C206.786 383.166 336.512 308.095 266.511 181.372C279.078 178.475 289.656 170.338 295.812 159.385H384.008C448.752 159.147 500.957 214.78 496.7 279.361L511.728 280.284C516.535 207.095 457.379 144.061 384.007 144.329ZM62.9838 144.801L45.0377 125.323L33.9664 135.524L52.6553 155.809C49.4999 159.508 46.4448 163.419 43.6075 167.434C27.5301 166.59 14.7667 153.032 15.0577 136.757C15.8767 98.541 71.2097 96.2807 75.3046 134.081C71.0552 137.392 66.9392 140.968 62.9838 144.801ZM384.007 400.259C409.331 400.252 434.024 392.83 454.974 378.771C448.204 399.59 436.869 414.847 413.243 415.329H362.41C365.537 406.469 374.098 400.129 384.007 400.259ZM158.857 400.259C151.41 409.659 140.014 415.33 127.507 415.33H76.6746C79.7829 406.56 88.1613 400.259 97.983 400.259H158.857Z" fill="black"/>
</g>
<defs>
<clipPath id="clip0">
<rect width="512" height="512" fill="white"/>
</clipPath>
</defs>
</svg>
