<svg width="508" height="500" viewBox="0 0 508 500" fill="none" xmlns="http://www.w3.org/2000/svg">
<g filter="url(#filter0_d)">
<g clip-path="url(#clip0)">
<path d="M72.4085 24.4405C105.232 8.08918 149.181 27.3903 170.074 69.3324C190.968 111.274 179.902 157.981 147.078 174.333C114.255 190.684 70.3063 171.383 49.4125 129.441C28.5188 87.4987 39.5849 40.7917 72.4085 24.4405Z" fill="#EBAF4B" stroke="black" stroke-width="6"/>
<path d="M68.7108 47.075C78.8907 42.0039 91.4867 43.3956 103.873 50.4409C116.24 57.475 128.071 70.0009 136.257 86.4344C144.444 102.868 147.316 119.856 145.482 133.965C143.644 148.096 137.168 158.989 126.988 164.06C116.808 169.131 104.212 167.74 91.8251 160.694C79.4582 153.66 67.6278 141.134 59.4414 124.701C51.2549 108.267 48.3825 91.2788 50.2171 77.1702C52.0546 63.039 58.531 52.1462 68.7108 47.075Z" fill="#FF8087" stroke="black" stroke-width="6"/>
<path d="M361.453 174.347C328.63 157.995 317.563 111.288 338.457 69.3462C359.351 27.4041 403.299 8.103 436.123 24.4543C468.947 40.8056 480.013 87.5125 459.119 129.455C438.225 171.397 394.277 190.698 361.453 174.347Z" fill="#EBAF4B" stroke="black" stroke-width="6"/>
<path d="M381.544 164.077C371.364 159.006 364.888 148.113 363.05 133.982C361.216 119.874 364.088 102.885 372.275 86.4517C380.461 70.0181 392.291 57.4922 404.658 50.4582C417.045 43.4129 429.641 42.0211 439.821 47.0922C450.001 52.1634 456.477 63.0562 458.315 77.1875C460.149 91.2961 457.277 108.284 449.09 124.718C440.904 141.151 429.074 153.677 416.707 160.711C404.32 167.757 391.724 169.149 381.544 164.077Z" fill="#FF8087" stroke="black" stroke-width="6"/>
<path d="M492.903 322.418L495.898 322.589L492.903 322.418C488.133 405.813 420.942 474.4 337.662 480.852C327.737 481.621 317.984 481.523 308.465 480.63C290.37 478.934 272.186 478.086 254.002 478.086C235.816 478.086 217.631 478.934 199.538 480.63C190.019 481.523 180.266 481.621 170.341 480.852C87.0612 474.4 19.8713 405.812 15.0996 322.418C12.6705 279.969 25.9382 240.712 49.6201 209.854L47.2401 208.028L49.6201 209.854C68.4954 185.258 86.0751 159.267 98.1089 130.387L95.3397 129.233L98.1089 130.387C123.544 69.3402 183.75 26.4326 254.001 26.4326C324.252 26.4326 384.458 69.3402 409.894 130.387C421.927 159.267 439.507 185.258 458.383 209.854C482.065 240.713 495.332 279.969 492.903 322.418Z" fill="#FFC850" stroke="black" stroke-width="6"/>
<path d="M80.4393 345.006C89.9411 404.837 127.351 454.588 177.164 481.209L183.157 484.27C178.846 484.298 174.501 484.184 170.109 483.844L170.341 480.853C170.341 480.853 170.341 480.853 170.341 480.853C87.0611 474.399 19.8712 405.813 15.0996 322.419C12.6705 279.969 25.9382 240.713 49.6201 209.855L49.6201 209.855C68.4954 185.259 86.0761 159.267 98.1089 130.387C118.434 81.6068 160.968 44.4156 213.079 31.4398C180.583 55.2263 156.396 89.7428 144.92 129.549C135.926 160.743 121.015 189.675 104.418 217.613C82.7402 254.101 73.0818 298.678 80.4393 345.006Z" fill="#EBAF4B" stroke="black" stroke-width="6"/>
<path d="M276.735 270.491C274.663 288.848 281.845 307.513 297.029 319.573C312.261 331.672 335.187 336.862 364.155 329.063C399.548 319.535 429.72 328.675 446.91 346.978C463.966 365.139 468.719 392.806 452.536 421.798C424.164 454.987 383.363 477.309 337.661 480.85C327.736 481.619 317.983 481.521 308.464 480.628C290.37 478.932 272.185 478.084 254.002 478.084C235.816 478.084 217.631 478.932 199.537 480.628C190.018 481.521 180.265 481.619 170.34 480.85L170.108 483.841L170.34 480.85C131.675 477.855 96.5709 461.348 69.4568 436.263C52.087 411.118 50.4616 382.397 60.9338 360.724C71.3897 339.084 94.0849 324.079 126.315 326.714C162.86 329.702 186.873 326.465 203.346 315.421C219.908 304.318 228.169 285.787 234.453 260.148C238.18 244.943 249.972 238.832 259.89 240.502C264.885 241.343 269.553 244.157 272.752 249.003C275.956 253.855 277.813 260.948 276.735 270.491Z" fill="#FAEBC8" stroke="black" stroke-width="6"/>
<path d="M265.712 404.153L265.712 404.153C258.261 407.55 249.738 407.55 242.287 404.153L242.287 404.153C242.149 404.091 242.012 404.028 241.874 403.965C234.789 400.736 226.828 397.108 220.564 392.36C214.201 387.536 210.124 381.963 210.124 374.994C210.124 367.68 214.571 360.691 222.517 355.393C230.443 350.11 241.565 346.744 254 346.744C266.434 346.744 277.556 350.11 285.482 355.393C293.428 360.691 297.875 367.68 297.875 374.994C297.875 381.963 293.798 387.536 287.436 392.36C281.171 397.109 273.209 400.737 266.123 403.966C265.986 404.029 265.849 404.091 265.712 404.153Z" fill="#FF96A0" stroke="black" stroke-width="6"/>
<path d="M246.965 443.899L246.965 443.899C240.007 447.962 231.97 450.119 223.713 450.119C209.203 450.119 195.733 443.502 187.632 432.549C186.052 430.408 186.505 427.396 188.641 425.815C190.776 424.235 193.791 424.685 195.372 426.823C201.752 435.458 212.383 440.495 223.713 440.495C230.236 440.495 236.597 438.81 242.107 435.591L242.108 435.591C249.443 431.301 258.561 431.301 265.896 435.591L265.898 435.592C271.402 438.805 277.768 440.495 284.287 440.495C295.621 440.495 306.249 435.455 312.63 426.826C314.224 424.681 317.235 424.238 319.36 425.811L319.361 425.812C321.502 427.395 321.951 430.407 320.373 432.542C312.269 443.499 298.799 450.119 284.286 450.119C276.034 450.119 267.998 447.963 261.04 443.904C256.703 441.366 251.311 441.361 246.965 443.899Z" fill="#EBC9A0" stroke="black" stroke-width="6"/>
<path d="M429.363 411.649L429.36 411.648C397.403 398.02 356.112 395.473 355.285 395.425C352.633 395.273 350.604 392.998 350.757 390.342C350.908 387.714 353.082 385.706 355.865 385.815C357.953 385.937 399.727 388.549 433.133 402.794C435.581 403.838 436.716 406.666 435.675 409.107L435.674 409.108C434.895 410.936 433.12 412.037 431.242 412.037C430.618 412.037 429.983 411.915 429.363 411.649Z" fill="#DCB996" stroke="black" stroke-width="6"/>
<path d="M494.493 379.498L494.489 379.496C467.292 369.235 429.84 365.726 399.326 364.745C368.9 363.767 344.984 365.296 344.191 365.347L344.18 365.347L344.145 365.35L344.109 365.353C341.539 365.577 339.226 363.587 339.043 360.873L339.043 360.87C338.862 358.222 340.865 355.926 343.518 355.748L343.519 355.748C345.468 355.616 370.114 354.016 401.303 355.108C432.573 356.203 470.067 359.996 497.885 370.492L497.886 370.492C500.37 371.429 501.627 374.203 500.688 376.694L500.688 376.695C499.964 378.616 498.135 379.811 496.188 379.811C495.628 379.811 495.057 379.711 494.493 379.498Z" fill="#DCB996" stroke="black" stroke-width="6"/>
<path d="M171.969 293.869C158.587 293.869 147.626 282.908 147.626 269.526V253.901C147.626 240.519 158.587 229.557 171.969 229.557C185.352 229.557 196.313 240.519 196.313 253.901V269.526C196.313 282.908 185.352 293.869 171.969 293.869Z" fill="#4B3F4E" stroke="black" stroke-width="6"/>
<path d="M171.063 265.62V229.594C171.368 229.57 171.667 229.557 171.969 229.557C185.352 229.557 196.313 240.519 196.313 253.901V265.62C196.313 272.592 190.661 278.245 183.688 278.245C176.716 278.245 171.063 272.592 171.063 265.62Z" fill="#5D5360" stroke="black" stroke-width="6"/>
<path d="M180.687 246.087C180.687 250.903 176.784 254.806 171.968 254.806C167.153 254.806 163.25 250.903 163.25 246.087C163.25 241.272 167.153 237.369 171.968 237.369C176.784 237.369 180.687 241.272 180.687 246.087Z" fill="white" stroke="black" stroke-width="6"/>
<path d="M336.032 293.869C322.649 293.869 311.688 282.908 311.688 269.526V253.901C311.688 240.519 322.649 229.557 336.032 229.557C349.414 229.557 360.375 240.519 360.375 253.901V269.526C360.375 282.908 349.414 293.869 336.032 293.869Z" fill="#4B3F4E" stroke="black" stroke-width="6"/>
<path d="M335.125 265.62V229.594C335.43 229.57 335.729 229.557 336.032 229.557C349.414 229.557 360.375 240.519 360.375 253.901V265.62C360.375 272.592 354.723 278.245 347.75 278.245C340.778 278.245 335.125 272.592 335.125 265.62Z" fill="#5D5360" stroke="black" stroke-width="6"/>
<path d="M344.749 246.087C344.749 250.903 340.846 254.806 336.031 254.806C331.215 254.806 327.312 250.903 327.312 246.087C327.312 241.272 331.215 237.369 336.031 237.369C340.846 237.369 344.749 241.272 344.749 246.087Z" fill="white" stroke="black" stroke-width="6"/>
<path d="M262.416 405.201C262.499 405.246 262.582 405.291 262.664 405.335L242.287 404.153C242.151 404.091 242.014 404.029 241.877 403.967C234.792 400.738 226.829 397.109 220.564 392.359C214.202 387.535 210.125 381.962 210.125 374.994C210.125 365.424 217.916 356.312 230.739 351.114C228.703 355.452 227.563 360.172 227.563 365.135C227.563 376.134 233.103 384.407 240.186 390.768C246.992 396.88 255.491 401.466 262.416 405.201Z" fill="#FF8087" stroke="black" stroke-width="6"/>
<path d="M80.4393 345.006L80.4393 345.006C89.9411 404.836 127.35 454.587 177.162 481.207C174.896 481.142 172.623 481.027 170.34 480.851C131.675 477.856 96.5709 461.349 69.4567 436.264C44.9958 400.854 51.828 358.636 79.6164 338.501C79.8379 340.643 80.0925 342.821 80.4393 345.006Z" fill="#F5DCB4" stroke="black" stroke-width="6"/>
<path d="M72.328 409.108L72.3275 409.107C71.2853 406.665 72.4202 403.838 74.8689 402.794L74.869 402.794C108.224 388.571 149.921 385.945 152.129 385.816C154.858 385.728 157.092 387.759 157.241 390.342L157.241 390.345C157.396 392.993 155.371 395.27 152.714 395.425C151.803 395.479 110.492 398.065 78.6423 411.648L78.6404 411.649C78.018 411.915 77.3825 412.037 76.7587 412.037C74.8827 412.037 73.1069 410.936 72.328 409.108Z" fill="#DCB996" stroke="black" stroke-width="6"/>
<path d="M7.31218 376.694L7.31217 376.694C6.37331 374.203 7.62963 371.429 10.1145 370.492L10.1146 370.492C37.931 359.998 75.423 356.201 106.691 355.104C137.882 354.009 162.528 355.608 164.47 355.747L164.482 355.748C167.135 355.926 169.138 358.222 168.957 360.87L168.957 360.87C168.771 363.589 166.426 365.581 163.898 365.353L163.865 365.35L163.832 365.348C163.297 365.312 139.277 363.761 108.673 364.746C78.159 365.729 40.7081 369.239 13.5117 379.496L13.5063 379.498C12.9447 379.711 12.371 379.811 11.8135 379.811C9.86734 379.811 8.03639 378.616 7.31218 376.694Z" fill="#DCB996" stroke="black" stroke-width="6"/>
</g>
</g>
<defs>
<filter id="filter0_d" x="0" y="0" width="508" height="508" filterUnits="userSpaceOnUse" color-interpolation-filters="sRGB">
<feFlood flood-opacity="0" result="BackgroundImageFix"/>
<feColorMatrix in="SourceAlpha" type="matrix" values="0 0 0 0 0 0 0 0 0 0 0 0 0 0 0 0 0 0 127 0"/>
<feOffset dy="4"/>
<feGaussianBlur stdDeviation="2"/>
<feColorMatrix type="matrix" values="0 0 0 0 0 0 0 0 0 0 0 0 0 0 0 0 0 0 0.25 0"/>
<feBlend mode="normal" in2="BackgroundImageFix" result="effect1_dropShadow"/>
<feBlend mode="normal" in="SourceGraphic" in2="effect1_dropShadow" result="shape"/>
</filter>
<clipPath id="clip0">
<rect x="4" width="500" height="500" fill="white"/>
</clipPath>
</defs>
</svg>
