<svg width="150" height="150" viewBox="0 0 150 150" fill="none" xmlns="http://www.w3.org/2000/svg">
<path d="M141.235 70.7285H8.76472L2.16296 77.3303V103.629L8.76472 110.23H141.235L147.837 103.629V77.3303L141.235 70.7285Z" fill="#D15573"/>
<path d="M147.391 103.833H11.4029L8.31912 100.75V71.1741L2.16296 77.3303V103.629L8.76472 110.23H141.235L147.837 103.629V103.388L147.391 103.833Z" fill="#C21D44"/>
<path d="M103.566 45.5089V52.4012L132.129 56.3502V41.1143L103.566 45.5089Z" fill="#E8AB4C"/>
<path d="M103.566 52.4013L132.129 56.3502V49.9146L103.566 45.9659V52.4013Z" fill="#E46A4A"/>
<path d="M136.241 21.4536L100.867 38.9912L104.129 45.4225L141.878 39.1626L136.241 21.4536Z" fill="#F8E868"/>
<path d="M104.129 39.0173L103.463 37.7042L100.867 38.9913L104.129 45.4225L141.878 39.1626L139.942 33.0786L104.129 39.0173Z" fill="#DEC80E"/>
<path d="M46.3373 45.5089V52.4012L17.774 56.3502V41.1143L46.3373 45.5089Z" fill="#E8AB4C"/>
<path d="M23.6519 49.3283V42.0187L17.774 41.1143V56.3502L46.3373 52.4012V46.1921L23.6519 49.3283Z" fill="#E46A4A"/>
<path d="M13.6617 21.4536L49.0359 38.9912L45.7746 45.4225L8.02466 39.1626L13.6617 21.4536Z" fill="#F8E868"/>
<path d="M15.7151 34.8554L19.1197 24.1594L13.6617 21.4536L8.02466 39.1626L45.7746 45.4225L48.3858 40.2733L15.7151 34.8554Z" fill="#DEC80E"/>
<path d="M61.8164 48.6428H44.2383L63.3349 70.6796H71.826L61.8164 48.6428Z" fill="#C4E5F9"/>
<path d="M67.7294 66.3173L52.413 48.6428H44.2383L63.3349 70.6796H71.826L69.8446 66.3173H67.7294Z" fill="#A4D7F5"/>
<path d="M88.3474 48.6428L78.2446 70.6796H86.8737L105.762 48.6428H88.3474Z" fill="#C4E5F9"/>
<path d="M87.9018 65.001L95.4009 48.6428H88.3474L78.2446 70.6796H86.8737L91.7411 65.001H87.9018Z" fill="#A4D7F5"/>
<path d="M88.3474 48.6428H61.8164L71.826 70.6796H78.2446L88.3474 48.6428Z" fill="#C4E5F9"/>
<path d="M76.2454 65.0877L68.7756 48.6428H61.8164L71.826 70.6796H78.2446L80.8081 65.0877H76.2454Z" fill="#A4D7F5"/>
<path d="M51.9287 33.4781L44.2383 48.6428H61.8164L66.2109 33.4781H51.9287Z" fill="#C4E5F9"/>
<path d="M54.2071 42.6399L58.8533 33.4781H51.9287L44.2383 48.6428H61.8164L63.5561 42.6399H54.2071Z" fill="#A4D7F5"/>
<path d="M66.2109 33.4781L61.8164 48.6428H88.3474L83.9528 33.4781H66.2109Z" fill="#C4E5F9"/>
<path d="M70.2735 42.7521L72.9612 33.4781H66.2109L61.8164 48.6428H88.3474L86.6402 42.7521H70.2735Z" fill="#A4D7F5"/>
<path d="M98.0713 33.4781H83.9529L88.3474 48.6428H105.762L98.0713 33.4781Z" fill="#C4E5F9"/>
<path d="M93.0349 42.5406L90.4087 33.4781H83.9529L88.3474 48.6428H105.762L102.667 42.5406H93.0349Z" fill="#A4D7F5"/>
<path d="M40.3368 122.427L43.3749 128.583L50.1682 129.57L45.2525 134.361L46.4129 141.127L40.3368 137.932L34.2609 141.127L35.4213 134.361L30.5056 129.57L37.299 128.583L40.3368 122.427Z" fill="#F8E868"/>
<path d="M75 122.427L78.0381 128.583L84.8311 129.57L79.9157 134.361L81.0759 141.127L75 137.932L68.9241 141.127L70.0843 134.361L65.1688 129.57L71.9619 128.583L75 122.427Z" fill="#F8E868"/>
<path d="M109.663 122.427L112.701 128.583L119.494 129.57L114.579 134.361L115.739 141.127L109.663 137.932L103.587 141.127L104.747 134.361L99.8317 129.57L106.625 128.583L109.663 122.427Z" fill="#F8E868"/>
<path d="M72.8027 55.299H77.1973V59.6935H72.8027V55.299Z" fill="white"/>
<path d="M85.8173 4.76691H90.2118V9.16144H85.8173V4.76691Z" fill="#C4E5F9"/>
<path d="M59.6191 4.76691H64.0137V9.16144H59.6191V4.76691Z" fill="#C4E5F9"/>
<path d="M94.7754 17.9505H99.1699V22.345H94.7754V17.9505Z" fill="#C4E5F9"/>
<path d="M50.8301 17.9505H55.2246V22.345H50.8301V17.9505Z" fill="#C4E5F9"/>
<path d="M9.11511 79.6163V101.551H13.5076V92.785H15.7848C19.4153 92.785 22.3693 89.8313 22.3693 86.2005C22.3693 82.57 19.4156 79.6163 15.7848 79.6163H9.11511ZM17.9768 86.2005C17.9768 87.409 16.9936 88.3922 15.7851 88.3922H13.5079V84.0088H15.7851C16.9933 84.0088 17.9768 84.992 17.9768 86.2005Z" fill="black"/>
<path d="M57.4049 84.0367V79.6442H44.2242V101.588H57.4049V97.1956H48.6167V92.8125H53.0124V88.4198H48.6167V84.0367H57.4049Z" fill="black"/>
<path d="M88.1675 79.6383H92.56V101.594H88.1675V79.6383Z" fill="black"/>
<path d="M83.7633 101.594V79.6119H79.4695L72.8771 87.0229L66.2648 79.6119H61.788V101.594H66.1807V86.1153L72.8824 93.6261L79.3708 86.3318V101.594H83.7633Z" fill="black"/>
<path d="M136.492 101.594H140.885V79.6119H136.591L129.999 87.0229L123.386 79.6119H118.91V101.594H123.302V86.115L130.004 93.6261L136.492 86.3318V101.594Z" fill="black"/>
<path d="M96.9375 79.5885V92.7317C96.9375 97.5756 100.879 101.517 105.722 101.517C110.566 101.517 114.507 97.5756 114.507 92.7317V79.5885H110.115V92.7317C110.115 95.1536 108.145 97.1241 105.723 97.1241C103.301 97.1241 101.33 95.1536 101.33 92.7317V79.5885H96.9375Z" fill="black"/>
<path d="M142.115 68.6558H91.6013L103.523 54.7462L134.299 59.0007V43.0515L144.685 40.972L137.53 18.4951L101.83 36.1945L99.4096 31.4224H50.5904L48.1702 36.1945L32.0502 28.2026L30.099 32.1381L46.1833 40.1124L44.6455 43.1446L18.2798 39.0882L10.9889 37.6283L15.1031 24.7034L25.7062 29.9602L27.6574 26.0247L12.4699 18.4954L5.31531 40.9723L15.701 43.0518V59.001L46.5152 54.7412L58.5732 68.6561H22.2896V73.0485H140.295L145.607 78.3606V102.828L140.295 108.14H132.178V112.533H142.115L150 104.647V76.541L142.115 68.6558ZM84.9181 50.9728L76.8114 68.6561H73.2641L65.2321 50.9728H84.9181ZM64.7455 46.58L67.865 35.8148H82.2984L85.418 46.58H64.7455ZM89.7504 50.9728H100.973L85.8161 68.6561H81.6433L89.7504 50.9728ZM129.906 53.9593L106.921 50.7817L108.37 49.0916L107.445 47.2673L129.906 43.8114V53.9593ZM134.897 24.7037L139.011 37.6286L131.72 39.0885L105.354 43.1449L103.816 40.1127L134.897 24.7037ZM102.171 46.58H89.9912L86.8717 35.8148H96.7119L102.171 46.58ZM53.2881 35.8148H63.2918L60.1722 46.58H47.8289L53.2881 35.8148ZM20.0935 53.9593V43.8117L42.5552 47.2676L41.6262 49.0995L43.0837 50.7814L20.0935 53.9593ZM49.0617 50.9728H60.4078L68.4398 68.6561H64.3854L49.0617 50.9728Z" fill="black"/>
<path d="M118.925 108.14H9.70459L4.39248 102.828V78.3604L9.70459 73.0483H17.8972V68.6558H7.88525L0 76.5411V104.647L7.88525 112.532H118.925V108.14Z" fill="black"/>
<path d="M123.28 108.14H127.766V112.532H123.28V108.14Z" fill="black"/>
<path d="M44.8479 126.672L40.3529 117.564L35.8576 126.672L25.8064 128.133L33.0793 135.222L31.3623 145.233L40.3526 140.506L49.3426 145.233L47.6255 135.222L54.8988 128.133L44.8479 126.672ZM43.509 137.203L40.3529 135.544L37.1964 137.203L37.7994 133.689L35.2458 131.2L38.7747 130.687L40.3529 127.489L41.9311 130.687L45.4599 131.2L42.9064 133.689L43.509 137.203Z" fill="black"/>
<path d="M79.495 126.672L75 117.564L70.505 126.672L60.4535 128.133L67.7267 135.222L66.0096 145.233L75 140.507L83.99 145.233L82.2729 135.222L89.5462 128.133L79.495 126.672ZM78.1561 137.203L75 135.544L71.8438 137.203L72.4468 133.689L69.8932 131.199L73.422 130.687L75 127.489L76.5782 130.687L80.107 131.199L77.5535 133.689L78.1561 137.203Z" fill="black"/>
<path d="M114.142 126.672L109.647 117.564L105.152 126.672L95.1006 128.133L102.374 135.222L100.657 145.233L109.647 140.506L118.637 145.233L116.92 135.222L124.193 128.133L114.142 126.672ZM112.804 137.203L109.647 135.544L106.491 137.203L107.094 133.689L104.54 131.2L108.069 130.687L109.647 127.489L111.226 130.687L114.754 131.2L112.201 133.689L112.804 137.203Z" fill="black"/>
<path d="M72.8036 26.8831H77.1964V22.4906H81.5889V18.0982H77.1964V13.7057H72.8036V18.0982H68.4111V22.4906H72.8036V26.8831Z" fill="black"/>
<path d="M35.4024 92.4838C38.0335 91.6207 39.9396 89.1431 39.9396 86.2269C39.9396 82.5964 36.9859 79.6427 33.3554 79.6427H26.6857V101.577H31.0782V93.6205L34.9609 101.59L39.9393 101.581L35.4024 92.4838ZM31.0782 84.0352H33.3554C34.5639 84.0352 35.5471 85.0184 35.5471 86.2269C35.5471 87.4354 34.5639 88.4186 33.3554 88.4186H31.0782V84.0352Z" fill="black"/>
</svg>
